<mxfile host="app.diagrams.net" modified="2024-11-18T11:09:09.835Z" agent="Mozilla/5.0 (Windows NT 10.0; Win64; x64) AppleWebKit/537.36 (KHTML, like Gecko) Chrome/131.0.0.0 Safari/537.36" etag="46sA7nXOOMLKh1guFK_0" version="24.5.1" type="github">
  <diagram name="Page-1" id="2YBvvXClWsGukQMizWep">
    <mxGraphModel dx="1964" dy="617" grid="1" gridSize="10" guides="1" tooltips="1" connect="1" arrows="1" fold="1" page="1" pageScale="1" pageWidth="850" pageHeight="1100" math="0" shadow="0">
      <root>
        <mxCell id="0" />
        <mxCell id="1" parent="0" />
        <mxCell id="gORR2JOLQoyEgwpr3WBH-1" value="Insights Hub" style="rounded=0;whiteSpace=wrap;html=1;" vertex="1" parent="1">
          <mxGeometry y="480" width="170" height="60" as="geometry" />
        </mxCell>
        <mxCell id="gORR2JOLQoyEgwpr3WBH-2" value="CheckProof" style="rounded=0;whiteSpace=wrap;html=1;" vertex="1" parent="1">
          <mxGeometry x="277.5" y="480" width="165" height="60" as="geometry" />
        </mxCell>
        <mxCell id="gORR2JOLQoyEgwpr3WBH-3" value="SalesForce" style="rounded=0;whiteSpace=wrap;html=1;" vertex="1" parent="1">
          <mxGeometry x="570" y="480" width="130" height="60" as="geometry" />
        </mxCell>
        <mxCell id="gORR2JOLQoyEgwpr3WBH-4" value="" style="verticalLabelPosition=bottom;shadow=0;dashed=0;align=center;html=1;verticalAlign=top;strokeWidth=1;shape=mxgraph.mockup.markup.line;strokeColor=#999999;" vertex="1" parent="1">
          <mxGeometry x="310" y="530" width="100" height="20" as="geometry" />
        </mxCell>
        <mxCell id="gORR2JOLQoyEgwpr3WBH-6" value="" style="verticalLabelPosition=bottom;shadow=0;dashed=0;align=center;html=1;verticalAlign=top;strokeWidth=1;shape=mxgraph.mockup.markup.line;strokeColor=#999999;rotation=90;" vertex="1" parent="1">
          <mxGeometry x="-177.41" y="800" width="514.83" height="20" as="geometry" />
        </mxCell>
        <mxCell id="gORR2JOLQoyEgwpr3WBH-7" value="" style="verticalLabelPosition=bottom;shadow=0;dashed=0;align=center;html=1;verticalAlign=top;strokeWidth=1;shape=mxgraph.mockup.markup.line;strokeColor=#999999;rotation=90;" vertex="1" parent="1">
          <mxGeometry x="97.82" y="792.19" width="524.37" height="20" as="geometry" />
        </mxCell>
        <mxCell id="gORR2JOLQoyEgwpr3WBH-15" value="" style="endArrow=classic;html=1;rounded=0;" edge="1" parent="1">
          <mxGeometry relative="1" as="geometry">
            <mxPoint x="80" y="600" as="sourcePoint" />
            <mxPoint x="180" y="600" as="targetPoint" />
          </mxGeometry>
        </mxCell>
        <mxCell id="gORR2JOLQoyEgwpr3WBH-16" value="POST Req" style="edgeLabel;resizable=0;html=1;;align=center;verticalAlign=middle;" connectable="0" vertex="1" parent="gORR2JOLQoyEgwpr3WBH-15">
          <mxGeometry relative="1" as="geometry" />
        </mxCell>
        <mxCell id="gORR2JOLQoyEgwpr3WBH-56" value="" style="edgeStyle=orthogonalEdgeStyle;rounded=0;orthogonalLoop=1;jettySize=auto;html=1;" edge="1" parent="1" source="gORR2JOLQoyEgwpr3WBH-17">
          <mxGeometry relative="1" as="geometry">
            <mxPoint x="80" y="640" as="targetPoint" />
            <Array as="points">
              <mxPoint x="220" y="640" />
              <mxPoint x="80" y="640" />
            </Array>
          </mxGeometry>
        </mxCell>
        <mxCell id="gORR2JOLQoyEgwpr3WBH-17" value="Auth Token" style="text;html=1;align=center;verticalAlign=middle;resizable=0;points=[];autosize=1;strokeColor=none;fillColor=none;" vertex="1" parent="1">
          <mxGeometry x="180" y="588" width="80" height="30" as="geometry" />
        </mxCell>
        <mxCell id="gORR2JOLQoyEgwpr3WBH-18" value="" style="endArrow=classic;html=1;rounded=0;" edge="1" parent="1">
          <mxGeometry relative="1" as="geometry">
            <mxPoint x="80" y="682.07" as="sourcePoint" />
            <mxPoint x="180" y="682.07" as="targetPoint" />
          </mxGeometry>
        </mxCell>
        <mxCell id="gORR2JOLQoyEgwpr3WBH-19" value="GET Req" style="edgeLabel;resizable=0;html=1;;align=center;verticalAlign=middle;" connectable="0" vertex="1" parent="gORR2JOLQoyEgwpr3WBH-18">
          <mxGeometry relative="1" as="geometry" />
        </mxCell>
        <mxCell id="gORR2JOLQoyEgwpr3WBH-22" value="Event" style="text;html=1;align=center;verticalAlign=middle;resizable=0;points=[];autosize=1;strokeColor=none;fillColor=none;" vertex="1" parent="1">
          <mxGeometry x="180" y="667.5" width="50" height="30" as="geometry" />
        </mxCell>
        <mxCell id="gORR2JOLQoyEgwpr3WBH-23" value="" style="endArrow=classic;html=1;rounded=0;" edge="1" parent="1">
          <mxGeometry relative="1" as="geometry">
            <mxPoint x="80" y="760" as="sourcePoint" />
            <mxPoint x="180" y="760" as="targetPoint" />
          </mxGeometry>
        </mxCell>
        <mxCell id="gORR2JOLQoyEgwpr3WBH-24" value="GET Req" style="edgeLabel;resizable=0;html=1;;align=center;verticalAlign=middle;" connectable="0" vertex="1" parent="gORR2JOLQoyEgwpr3WBH-23">
          <mxGeometry relative="1" as="geometry" />
        </mxCell>
        <mxCell id="gORR2JOLQoyEgwpr3WBH-25" value="Asset" style="text;html=1;align=center;verticalAlign=middle;resizable=0;points=[];autosize=1;strokeColor=none;fillColor=none;" vertex="1" parent="1">
          <mxGeometry x="180" y="748" width="50" height="30" as="geometry" />
        </mxCell>
        <mxCell id="gORR2JOLQoyEgwpr3WBH-26" value="" style="endArrow=classic;html=1;rounded=0;" edge="1" parent="1">
          <mxGeometry relative="1" as="geometry">
            <mxPoint x="80" y="840" as="sourcePoint" />
            <mxPoint x="180" y="840" as="targetPoint" />
            <Array as="points">
              <mxPoint x="150" y="840" />
            </Array>
          </mxGeometry>
        </mxCell>
        <mxCell id="gORR2JOLQoyEgwpr3WBH-27" value="Get Req" style="edgeLabel;resizable=0;html=1;;align=center;verticalAlign=middle;" connectable="0" vertex="1" parent="gORR2JOLQoyEgwpr3WBH-26">
          <mxGeometry relative="1" as="geometry" />
        </mxCell>
        <mxCell id="gORR2JOLQoyEgwpr3WBH-28" value="Event Rule" style="text;html=1;align=center;verticalAlign=middle;resizable=0;points=[];autosize=1;strokeColor=none;fillColor=none;" vertex="1" parent="1">
          <mxGeometry x="180" y="828" width="80" height="30" as="geometry" />
        </mxCell>
        <mxCell id="gORR2JOLQoyEgwpr3WBH-29" value="" style="endArrow=classic;html=1;rounded=0;" edge="1" parent="1">
          <mxGeometry relative="1" as="geometry">
            <mxPoint x="80" y="920" as="sourcePoint" />
            <mxPoint x="180" y="920" as="targetPoint" />
          </mxGeometry>
        </mxCell>
        <mxCell id="gORR2JOLQoyEgwpr3WBH-30" value="Put Req" style="edgeLabel;resizable=0;html=1;;align=center;verticalAlign=middle;" connectable="0" vertex="1" parent="gORR2JOLQoyEgwpr3WBH-29">
          <mxGeometry relative="1" as="geometry" />
        </mxCell>
        <mxCell id="gORR2JOLQoyEgwpr3WBH-31" value="Upadate Event" style="text;html=1;align=center;verticalAlign=middle;resizable=0;points=[];autosize=1;strokeColor=none;fillColor=none;" vertex="1" parent="1">
          <mxGeometry x="180" y="908" width="100" height="30" as="geometry" />
        </mxCell>
        <mxCell id="gORR2JOLQoyEgwpr3WBH-33" value="" style="endArrow=classic;html=1;rounded=0;" edge="1" parent="1">
          <mxGeometry relative="1" as="geometry">
            <mxPoint x="360" y="602.78" as="sourcePoint" />
            <mxPoint x="460" y="602.78" as="targetPoint" />
          </mxGeometry>
        </mxCell>
        <mxCell id="gORR2JOLQoyEgwpr3WBH-34" value="Post Req" style="edgeLabel;resizable=0;html=1;;align=center;verticalAlign=middle;" connectable="0" vertex="1" parent="gORR2JOLQoyEgwpr3WBH-33">
          <mxGeometry relative="1" as="geometry" />
        </mxCell>
        <mxCell id="gORR2JOLQoyEgwpr3WBH-35" value="OAuth" style="text;html=1;align=center;verticalAlign=middle;resizable=0;points=[];autosize=1;strokeColor=none;fillColor=none;" vertex="1" parent="1">
          <mxGeometry x="450" y="588" width="60" height="30" as="geometry" />
        </mxCell>
        <mxCell id="gORR2JOLQoyEgwpr3WBH-36" value="" style="endArrow=classic;html=1;rounded=0;" edge="1" parent="1">
          <mxGeometry relative="1" as="geometry">
            <mxPoint x="360" y="680" as="sourcePoint" />
            <mxPoint x="460" y="680" as="targetPoint" />
            <Array as="points">
              <mxPoint x="410" y="680" />
            </Array>
          </mxGeometry>
        </mxCell>
        <mxCell id="gORR2JOLQoyEgwpr3WBH-37" value="Get Req" style="edgeLabel;resizable=0;html=1;;align=center;verticalAlign=middle;" connectable="0" vertex="1" parent="gORR2JOLQoyEgwpr3WBH-36">
          <mxGeometry relative="1" as="geometry" />
        </mxCell>
        <mxCell id="gORR2JOLQoyEgwpr3WBH-38" value="Object ID" style="text;html=1;align=center;verticalAlign=middle;resizable=0;points=[];autosize=1;strokeColor=none;fillColor=none;" vertex="1" parent="1">
          <mxGeometry x="457.5" y="668" width="70" height="30" as="geometry" />
        </mxCell>
        <mxCell id="gORR2JOLQoyEgwpr3WBH-39" value="" style="endArrow=classic;html=1;rounded=0;" edge="1" parent="1">
          <mxGeometry relative="1" as="geometry">
            <mxPoint x="360" y="760" as="sourcePoint" />
            <mxPoint x="460" y="760" as="targetPoint" />
          </mxGeometry>
        </mxCell>
        <mxCell id="gORR2JOLQoyEgwpr3WBH-40" value="Get Req" style="edgeLabel;resizable=0;html=1;;align=center;verticalAlign=middle;" connectable="0" vertex="1" parent="gORR2JOLQoyEgwpr3WBH-39">
          <mxGeometry relative="1" as="geometry" />
        </mxCell>
        <mxCell id="gORR2JOLQoyEgwpr3WBH-42" value="Checklist" style="text;html=1;align=center;verticalAlign=middle;resizable=0;points=[];autosize=1;strokeColor=none;fillColor=none;" vertex="1" parent="1">
          <mxGeometry x="457.5" y="748" width="70" height="30" as="geometry" />
        </mxCell>
        <mxCell id="gORR2JOLQoyEgwpr3WBH-45" value="Check on Unit" style="text;html=1;align=center;verticalAlign=middle;resizable=0;points=[];autosize=1;strokeColor=none;fillColor=none;" vertex="1" parent="1">
          <mxGeometry x="457.5" y="828" width="100" height="30" as="geometry" />
        </mxCell>
        <mxCell id="gORR2JOLQoyEgwpr3WBH-48" value="" style="verticalLabelPosition=bottom;aspect=fixed;html=1;shape=mxgraph.salesforce.platform;" vertex="1" parent="1">
          <mxGeometry x="670.5" y="495" width="19.5" height="30" as="geometry" />
        </mxCell>
        <mxCell id="gORR2JOLQoyEgwpr3WBH-50" value="" style="shape=image;imageAspect=0;aspect=fixed;verticalLabelPosition=bottom;verticalAlign=top;image=data:image/jpeg,/9j/4AAQSkZJRgABAQAAAQABAAD/2wCEAAkGBw4ODQ4ODg8PDw0OEBIPDw0ODRAPEA4QGREWGBYVFhcYHjQsJCYxHRgVIT0tMTU3Ojo6Fys/PD84QzQ5MDcBCgoKDg0OGhAQGy0lICYtLS4uLSstLy0tLS0tLS0tLS0tLS0tLS0tLS0tLS0tLS0tLS0tLS0tLS0tLS0tLS0tLf/AABEIAMgAyAMBEQACEQEDEQH/xAAcAAEAAgIDAQAAAAAAAAAAAAAABgcBBQIECAP/xABBEAABAwIDBAcEBwcDBQAAAAABAAIDBBEFBhIHITFhEyIyQVGBkRRicaEjQlKSorHRFlRygrLBwhVTlBckMzST/8QAGwEBAAIDAQEAAAAAAAAAAAAAAAQFAQMGAgf/xAAwEQACAgIBAwMDAgUFAQAAAAAAAQIDBBEFEiExE0FRBiJhFDJxkaGxwRVCUoHh0f/aAAwDAQACEQMRAD8AsNfIy+CAIAgCAIAgCAIAgCAIAgCAIAgCAIAgCAIAgCAIAgCAIAgCAIAgCAIAgCAIAgCAIAgCAIAgCAIAgCAIAgCAIAgCAIAgCAIAgCAIAgCAIAgCAIAgCAIAgCAIAgCAIAgCAIAgCAIAgCAIAgCAIAgCAIAgCAIAgCAIAgCAIAgCAIAgCAIAgCAIAgCAIAgCAIAgCAIAgCAIAgCAIAgCAIAgCAIAgCAIAgCAIAgCAIAgCAIAgCAIAgCAIAgCAIAgCAIAgCGAgCGQgCAIAgCAIAgCAIAsmAsAIZCAIAgCAIAgCAIAgCJbMHXqK2GLdLLHGfCSRrPzUiGPbP8AbFnlzSOcE8cg1RvY9vixwcPkvNlNkP3IypJn1Wk9GLhe1CT8IxtGV5aa7MGLoot+ENgFenCS8obQJWFBvwhsah4rPpT+GNoah4p6U/hmNoAry4teUZ2ZRJvwDqz4jTxnTJPCx3g+VjT8ypEMW2S+2LPPWj7xSse3UxzXNPBzXBw+S1yrnD9yMqSZzWo9GLjxXv05fDMbRleNAwSvShJ+w2gCji15Q2ZXkyEAQBAcJJGsaXOIa1oLnOJsAPErZCDnLSPLelspbOu0ieoe6Ghe6GmBt0jd0k3O/EBdxxvCVUpTtW5f2Ky7JbfSvBCqegqqjU+OKabf1ntY5+/mVdSspr7NpEfpkxQ11RRza4XyQzMPcS0jkQfyKWVVXw1JJoKU4+C/Mi5kOIUHTyt0SRksldYhjiB2h5LguS49Y+R0w8MtKbHOG2ULjmIGqq6ioJP00jni/hfd8rLu8alVUxh8Iq7JuU2ehsn4eaXDaSA8WRAuv9p13H5kr53ydquyZzRb0x6YJEA234lvpKVp7nzSD0az/L1XRfTWP2nY/wAETMn3SOtsRoC6oqqk8Io2xtPiXkk/JvzWz6kuUao1r3POGm25Gm2s4l0+LSMBuyma2Ib++wLvmSPJTeCo6MWL933NeVPc3ojVNg9XKwPjp53xu7L2RPc07z3gKynkUwbUpI0qMmtn1/Z+v/dKn/4SfovP6vH/AOS/mjLhPey2dmVJ/puF1FTWaoQ55kcJAWlrGiw3HxN1yfMzWXkxpq76+Cfjrog5SINm7aFV1z3Mhc6npb2bGw2e8eL3D8lecfw1OPFOa3Ii3ZLk9LwRiDC6qVhkjgmkZ3vbE9zfVWbvpg9No0qMmtpH0wfGqqhlElNK+NwO9v1XcnNPHvXjIxqsiHTNbRmM5w7ovzC8ytnwn/UXMLNMT3uYbgamg7hyJHzXBW4Dhm+gnvuWkbW6+pnnpvSTzAb3SzSW473Pc79SvoP21w/CRUrey9M1ZphwWkip2ES1QiayKMk7gGga38uXeuJwuOnnXuyfaOyzsuVUO3kpmGKsxWssNU9TM65J3AbuJ7gAuwlKjDp79kiuXVZIvPJWUocLhIB6SokA6abfv39kDuAXCcnyU8ufxFeEWlNXQiSqqN4WDIQBAQHbFizoMPZAw2dVv0kjj0bbFw/pXR/TuMp3Ox/7SHlzcYaKwyJgIxHEI4H36FoMk1uOgDh5mw811PJ5f6XHc159iDRBTmeiKanjhY2KJjWRsFmsaAGtC+c23Ttk5SZbxgkjT4tlGgrKllTUQB8rBY7yGyeGsDjZTaOVyKKvTg+xrlRGT7nXz3WNosHqSwBn0fQxtaA0AvOmw8iT5LbxcJZGZFy7+7PN+o1vR56gkDXteWhwa4OLTezrHgbL6HJbhpFSmWN/1gq/3Wn9ZP1XOv6cpb31Ml/rGQvM+PS4jVOqZWtY4tawMZfS0Ac/M+aucPEjjVenD2I9ljnLZcOy6kbSYMJ39XpekqHnwYLgfJt/NcfzVjvzVWvbRYY66atlIYhVunnlmf2pXuefM3XbU1qEFBeyK2b29k+wbamaSmhpmUTS2FgYD7QRq59lUWTwKusc5WPv+P8A0kwy+mOtG8wHajJWVcFMKJremkDNQqCS0d53tUHK4GNFMrPUfb8f+m6vL6pa0fHbbizmspqNpsJLzSjxANmD11egXr6cx03K1+fYxmSfaKItsvy3HiFa50w1U9M0Pezue49lp5bifJWvN50san7PLNGLWpS7l8sYGgNaAABYAAAAclwDtlJ7bLVJGiqMnYdJWGskp2vmNrh1+jLvtFnAlT4ctkxq9JS7Gp0Qk96NNtcrxBhLom7jUPZEAPsghxt90DzU7gKnbk+pLvo1ZTSh0lJ4ZXOpp452BrnxO1tDgS3UOF7LtrauuLi/BWwfSzlLPJV1GuaW8szxrlkPeSBc27l56I1Q1BdkNuUu56EyllenwyDo4hqlcPpZyOtIf7Dkvn3JchZlWfd4+C3pqUIm+VWbggCwZCAICsNuNK50NFMAdMb5WOPgXhhH9BXWfTFiTnD3ev6EDOi9JkM2a49FQYgHznTDKx0T37+oTvB+FwFecxiTyKGoeSLj2RhLZdlTmXD4ojK+rg6O17iVrifgG7yuHhxmRKfT09yzd0Et7OnljONHiReyBxbIwn6KQBr3Nv2h4j8ltzeKuxUpS7r8GK7ozfYiG2/EbRUlKD23PmeOQADfzd6K5+maNudjI2bLSSRFNm+U48Uln6cvbDCxpvGQCXuO4fJytuX5F4cF0+WaMelTfcmWLbM8Mp6aad0lRaKN8nbbxDfh8FT43O33WqtLySJ4sEmyoKeF0kjI2i7nuDGjxJNgutlNQg2V6/dovbP0zcPwF8LDYmOOlj58A78Id6rh+MjLJz/Ul8tlnc9VaKbynh8NVXwQ1DxHA4kyvc8MAaGk8T42t5rsc22VVDlBfcV1UVKS6i0v2Iy7/vt/5zFzH+pcl7R/oTlTT8m0y3lXBqeqZNSSNkqIw7SBVCTSC0gmw5EqHnZ+bOpwsWov8GyqquL2iG7b6Vwq6Wa3UfCWA+8128fiCuPpu2LplH3RHzE9ps6OyXMUFFUTxVDhGyqawCR3Za9hdYHwvqKkc9g2ZNcXDu4/5POJZGDaZa+J5qw+miMslVEQBcNje2R7uQDVyVPF5Nk+lRJ0roJb2YyvmelxOIvgcQ9vbhfufHz+HNYzuNtxJal4+RXcrPBWu2zEddXT0wO6CMvcPefb+zR6rqPpujopdnz/AIIWbLbSI5krJ8+KS7rx0zD9LORw91t+JVjyHJ14i7+X4RqqplYarMGFuoqyemde8LyAT9Zu4tPmCFKxr1fSrF7muyPS9F87PcZ9twyCRxvLGOhl/ibuB8xpPmuC5nF9DIevD8FrRZ1QRJFUEgIAgCAIDo41hUNbTSU07bxyCxtxab3BHMKXiZUsa1WR8mqcFJdJSOP7OMRpXnoozUw36skVtVu67OIXc4nNY1y7vT/JW2Y0ov8ABpYcr4i92ltHUE+HROCmyzsaK25o1KmZYWQtnE8E8dZWu6J0R1R08bwXE2+s5vAcgue5Xmq5QdVXffuTKMaUXtnQ2l4DidZicj4qWWSBjGMic0Ahw03P4iVI4fMxqcZKU9S9zxkV2SkTDZbgMtDQO6eMxzzSF7mOtqDQLNv8/VU3O5kL7dQe0iTjVuMe529o9PVTYZLDSxOlklcxrmstqDNQJt6Aea0cLOqvKU7XpI9ZKk4aiVzkTJdc3E6eSqppIoInGRzniwuGnSPvWXS8nylH6eSrl3ZCpokppslO1zDK6rbSRUsEksbS98hZY9azQ2/4vVVXAZFFKnKyWmzflxnJpRRW/wCxOLfuU/3V0v8AqmK/96IfoWJ+B+xOLfuU/wB1Y/1PE/5oehZvwTfZTlWrpqyWoq4HwhkemPWANTnHfYfAH1VJzvIU2UquuW9knGqlGW2ifZpy/DiVM6nl6pvqjlAu6J/iP0XPcfnTxLOuPj3RKtqVkdFJ4zs/xOleR0Dp4x2ZYLPB8uI813GNzGLct9Wn8Mrp484mvpsqYlK7SyjnJ5xlo9TuUiefjQW3NHhUzZaGzzIElBKKuqfacAhsEbrtZcWOo9/w4Ll+X5mvJh6Vfj5JtGO4/cyH5yy1itXiVVOKOZzXyWYQAQWNGlvDkArjAzsWrHjDrXZEe6qc5MtLIGEOosMp4ZG6ZjqklabXDnOvbyFh5LlOXylkZMpR8exOoh0Q0RDaxlKoqaiGqpIXTOcwxzBgFwW20n0JH8quuB5Kuqt12y1rwR8qmUmnFGdk2G4jRTzxVFNLHTzMDtTwAGyN4eoJ9F5527GvrUoS3JDEjODaki0FyRYBAEAQBAYWTBleoqXsYbXuF6cLPdMGF4cWvJnsZRNjQWeiXwzG0FlVz+GNheXtdmZXcBYAWUpPwYC9OMteGNoLy0/BkLACyvwAvXTN+zMBeGtdjIQBZSbMNpeQvXpz+GNoI65/DG0YXlxa8ofwMrBlhYMhAEBhZMe5Re1/EjNihhB6lNG1nLUQHO/Mei7/AIChQxVNr9xVZU/v0iL02C1kkYmjp53xG5EjI3OaQDY71aSyKYvpk1s0KEmto7OCZorqGQOhmeA074nkujdyLStWRg0ZENSieoWzgy+KXMUcuFf6kBZnQPlLSeDmggt+8CFwksCUMz9P+Sz9XdfWec7ySyfWfJI4mwuXOcSvoqUIR/CKlvZ2p8JrIWl76eeNreL3RPaB52WpX0z7Joz0SRu8qZ4rKGZmqV81Ne0kMjtXV90ngVCzuKoyI9o6l8m2u+UWXdjuOwUVI6rkN4w0FgHGUnsgfFcPi4M77/SRZTsUI7KLzDnavr3nVK6OEnqwROLWgc7bz5ru8Ti8bHWku/yVk75SfY05ZVQaZLTw37MhEjL/AAKl7ps+3s/5Gv713LN2X5ur6ib2WdklTCB/7FutBu3a3d4PPeuZ5vjaIVu2HZ/HyTca6cuxai5RQl8E5yRTG0bOWI+0vpWCWjgabADqyTD7Wod3wXa8RxmMq1Y9Sf8AYrci2xMggiqnNM2mdzRvM1nkD+ZXjdMfs7f0IqUvJI8rbQK2he1sj3VFNfrRSOu4D3XHePyVfncPTfHaWn8o3VZEoPuXrhtdFUwRzwu1RSt1NdyXBZFEqLXXLyi0jLrSaK0234jYUlK08dczx6Nb/kuo+msfSnZIh5lndRRWFJh9RMCYYZZQDYmONzwD5LqLLa6+0miClNnajwCvc4NFLUXcbC8Lx3/BaXlY8VtyX8z10TLxyFlNmGU/Ws6rlAM0nEDwY3kPmuF5fkf1dmo/tXgs6KehdyUqpJAXkyEAQHGR4a1znGzWgucfAAXK2Vx6ppI8N67nl/GK01NVPO7jNI5/wuV9Sx61VUofCKWyW5OReODZlwqgw+niNZD9DE0ObG4yOLrXO5vO64vJwMvIyXJRfdllC2EYFKZir2VVbUVEbdDJpXPa3duF12WJW6aYwl30Vs5dUnosPHy+gypS0r+rNUmzgeIaZXSkemkLnsZRyOUnavEf/miXZ9lCiQzIE9NFicE1XI2KGHVJqcHG7g3qjdzIPkrrk67Z48o1LuyPRrqTZbGM7R8Kjgk6OUVMhaQ2Fscln7u8uFrLlMXhct2JzWl/En2X16KNoaSSeWOGJpdJI4Na0d5JXbWWxrrcpexWJNssXbJM6MYfRgnRFCXH3juYD+E+qoOAhGbst+WSsttJROOxjBIppairlaHupyxsQIuGucHXd8h6rz9RZk64RhH38mcStS+5lu1dNHNG6KVjZI3izmOAIcFx9V9kJdUW9lhKKkioMy5hdTzDBcJb7LEyQQvlB+klkc4X6x3gX7+JsuzwsT1Yfqcl9Ta3or7bHF9EPBzo8u0Uz6yGnqp48SozZs8k4DqmQNcXWZxA6p33Wbcm2tQlKCcH7fBiMYy2l5PvkrHo8YdHh+KxCokjvJTzkEO6ouWutyHnbetPJY08KDvxnpe6PVM/V+2aLYZG1rQ1oAaBYNAAAFuC492zb3ssFFeCitrGCRUeIB0LQxlRH0nRt3Na65Bt+a77g8qd9Gp+UVOTBRkTLYnWufRVEJN2wSgs5B7T/cFUn1JUlbGS9yVhy3FogO03EfaMWqSDdkRbCz+Vov8Ai1eq6Hh6PSxYbImTLdjNnknP8OF0hgNK+R7pHPdIJQ2+7dutyUXkeKll2dXXpGym9QWtEuwXad7bUR08FBI6R5t/522A73Hq8BvVPk8F6FbnO3sjfDJ6nrRYa5lk0LBkIAgCAjW0bEfZsJqng2fI0Qs+LyAflc+St+Fp9XLj8Ij5M+mDKGwLCJq6pZTQAdLJqtqNmgBpJufJd9kZEMet2T8IqYQc3ol8eyfEies+naPHpHH/ABVRL6gxV3RJ/STJdlXZhT0kjZqqT2mVh1NjDdMTT4+8qfO+oJ3RcK1pEivFUfJGttmI66ynpgd0EZeR7z7f2a1Wn05TqmVn/L/Boy5d9Ghy1kaqxGmkqYXRtaxzmhrydUhDb7lPy+UqxrFXP3NNdDnHaIuW2NjusbEd/FWSf27Rp13L/wAj5Vw+kijqqa8skzA5tRJYu0kcABuC4HluRvtm6p9kvYtqKopbRG9tuFPfHTVjQS2LVFL7ocQWH11eoVj9NZMV1VPz7GnNg2k0RbZnmyPDZ5GT3FNUBut4BPRubezreG8q05njpZdacPKNGPcoPTLSxDP+FQxGQVLJTa7Yorue4+HLzXLVcJlzl0uOl8k6WTWlvZCJRh+YiJI3igxYHsOJc2e3Z37rmwHDf8VfL1+Nj0yXXX8/BF3G7x5NhJl7HZC9pioY5ZW9HLiLQ3ppGWseHeRyWpchgxS020vET36VrOlSYpheXXCOH/vq15Damdp0tiZ3tbxHl6rZZj5PJR3L7I+y+TzGcKf4k3iz5hLoul9sjAtcscHCQctNrqhfC5al09JJ/U1lNZ9zGMTrTKwFsLGiOEO7Wkd5+JXZ8ZhfpKVCXn3K663rl2LG2Y0poMHnrJRbpdc4B/22NIb6m/que5iaycyFUfYmUR6a+op5rZKmcDtSzyW+L3O/UrrNxqh+Eiv/AHSLgGyKh756i/f2P0XJS+pLE/2onrCj5JLlXKNLhbX9BqdJIetLJYvt3N5BVWfyduZrq7L4N9VMYdyQKrJAQBAEAQEI2o4FXV8FPDRsa9rZHPlBkaz6oDe18XLoODy6MaUpWvXwRMmuU12NXsxyXV0NTLUVkbWHo9EQEjXkknrHqnl81L5rlacipQqe/k14tEoPciy1yhPCyvJgpjNmRsXrcQqalsDSySTqHp4h1ANLe/wAXcYPLYdFEa+rwvgrLaLJzb0WXkvCHUOHU9M8AStaXSWIPXc4k7x8beS5jk8pZGRKyPj2JtFfRDTK6zps5rZa+aaiia+CY9JYyxs0vI6w6x8d/muk47m6FQo3S1JEO7Gl1biTTZvh1dR0bqatYGCN94SJGPu11yR1fA/1Kk5q/HvtVlL3vyScaM4x1Ik1ZSxzRvilaHxSDS9juDgqqq6VU1KD7m9x6lplS5h2Tzte59BI2SMm4hlIY9vLUdx+S7DE+oq3HpuWn8lfZitP7TRwbM8Yc6zoGRj7T6iEj8LiVOlzmHFdp7/6NaxZ+GWNkfZ9FhzhUTOE9XbqkAhkP8N+J5rnOU5qWSvTgtR/uS6Mfo7sm658lldZ02Zsq5HVNG9sMzzd8Tgeje7xB7j+q6fjue9GKrt7r5IV2N1+CDO2aYwHWFM0j7QqILfN11ernMFrfX/RkV4tvwSjK2ykte2XEXtLWm/s0Zvq/id4cgqrP+oouPTQv+zfViP/AHEzzzh9TUYZLS0TAZJNEenU2MNjDgTx3dwHmqXi8iqGSrbmSboy9PpiQDJez2vgxGnnq4msghcZCRLG+7g06dzT9qy6HkOax540oVy22RKcaSmnJFxLiGWQQyEAQBAEAQBZMGEBlYMhAYWV+TBlB5MIDKAIAgMIDKAIwEBhZ/AMrACyDCwPJlYMhAEAQBAEAQBAEAQBAEAQBAEAQBAEAQBAEAQBAEAQBAEAQBAEAQBAEAQBAEAQBAEAQBAEAQBAEAQBAEAQBAEAQBAEAQBAEAQBAEAQBAEAQBAEAQBAEAQBAEAQBAEAQBAEAQBAEAQBAEAQBAEAQBAEAQBAEAQBAEAQBAEAQBAEAQBAEAQBAEAQBAEAQBAEAQBAEAQBAEAQBAEAQBAEAQBAEAQBAEAQBAEAQBAEAQBAEAQBAEAQBAEAQBAEAQBAEAQBAEAQBAEAQBAEAQBAEAQBAEAQBAEAQBAEAQBAEAQBAEB//9k=;" vertex="1" parent="1">
          <mxGeometry x="395" y="495" width="30" height="30" as="geometry" />
        </mxCell>
        <mxCell id="gORR2JOLQoyEgwpr3WBH-51" value="" style="shape=image;imageAspect=0;aspect=fixed;verticalLabelPosition=bottom;verticalAlign=top;image=data:image/png,iVBORw0KGgoAAAANSUhEUgAAAOoAAAE5CAYAAACeSbx7AAAACXBIWXMAABJ0AAASdAHeZh94AAAgAElEQVR4nOydd3xUVfqHn3tn0oAU0ntCGqEkAkIgIEhTEXvFiq7+7Luu7q4ru7rq2l3XVVldEXsBKzbs9CY1tAAJ6RVISKckITP3/v6YO5NJg5n0mZzn8wlkMvfcc+7M/d7znve85z1SZOI4FYFA0K+R+7oBAoHgzAihCgQOgBCqQOAACKEKBA6AEKpA4AAIoQoEDoAQqkDgAAihCgQOgBCqQOAACKEKBA6AEKpA4AAIoQoEDoAQqkDgAOh7oxJZltHrdeh0OnSyjCTJSJLUG1ULBN2EiqKqKIqCYlQwGI0YDIZeq73HhCrLMhHhoQyPj2N4fCwJcbFERYYTFBiAl5cn7m5uyLLo0AX9HxUwNDVx4sRJKquqKT18hLz8AjKzcsjKySU7N59jx46jqj23YlTq7vWoOp2OxIQ4Ljx/FuPGJBEfG0OAv5/oQQVOR+OpUxQUFLE/M4s16zeyYtU66hsaeqSubhXqUB8fbpt/PRfNmU14aChubq7ddWqBoN+iKArVNbXk5hew8H9vsXHztm7vXbtNqLEx0Sx69UUS4mK643QCgUNS39DAh0s+57U336Xu2LFuO6/O2z/kia6cwNNzCNdccQmLFr5IcFBgNzVLIHBMXPR6xiSPJnZYFDl5+VRUVnXLebskVH8/P267+Xruv/v/GDJ4cLc0SCBwdGRZJj42hvi4GPILCjl8pKzL5+y0UD09h3Dbzddzy43z8Pby7HJDBAJnIzwslLOSRpOZlc2hw10Ta6fnRy6dewG33Xw9Pt5eXWqAQODMJCbE8chfH+yy76ZTPWpsTDSLFr4ozF2BwAaCAgPw9BzC5q07aDx1qlPnsLtHHerjw6JXX2SQh0enKhQIBhqyLDNr+jQumjMbvb5zMUZ2CVWn03Hb/OvFFIxAYCfeXp5ce+VlRISFdqq8XUJNTIjjojmzO1WRQDDQSU4ayeyZ0zpV1mahyrLMhefPIjy0c08EgWCgo9fpuOXGebi52h+xZ7NQI8JDGTcmSYQFCgRdICIslAtmz7C7nM1CHR4fR3ysGJsKBF3l5huusXuRik1ClWWZ4fGxBPj7daphAoGgmXFjkhnq42NXGZuEqtfrSIiLFUvVBIJuQK/TERsTZVcZm4Sq0+mIigzvVKMEAkFbIsLC7DreNqHKMkGBAZ1qkEAgaEtggH3DSJuEKkkyXiLwXiDoNjw97dOTjUKVcHdz61SDBAJBW+yd5rQr4EEgEHQP9upJqE8g6APsnT8RQhUIHAAhVIHAARBCFQgcACFUgcABEEIVCBwAIVSBwAEQQhUIHAAhVIHAAXBaoTYajfxSXMwLu3eTW1vb180RCLpEr2xk3Nscra/nibQ0luXnc6ypiUUHDvBgcjJ3JCbi0cl0jQJBX+I0d62iqtQbDHyZn89DW7Zw1GqfyoLjx3lw82a+yM3l2ZQUUgIDcdPp+rC1AoF9OIVQaxob+a2sjNf372dFaSlNitLmGEVV2VhWxpUrVjA/IYGb4uIY5euLq1hsIHAAHFqoiqryW1kZn+bm8k1BAaUnTpyxTEVDA//Zu5cVJSXcGBfH5dHRJHh7izQzgn6Nwwo1/9gxFmdksLywkMyaGox27vCcXlXFP9PS+KWkhJvi47lq2DC8O5FvVdDzHGtq4puCAkqOH+e24cMJGjSor5vU6zicUOsNBr7Kz+ffe/eSUVNDo9HY+XMZjaw9fJi0igq+zs/nuZQURvv6dmNrBV1BVVX2VVfzZFoaq0pLaVQUlubk8Oi4cVwRHY3rAPIzOIxQTxmNFB4/zl+3bmV5YaHdPWhHqKpK3alTfF9UxC8lJfw5OZkHkpLwc3dHL8zhPsGoqhxvauKN/ft5Yc8eaqx2QNtXXc0ta9fyVVQUj40bR4KPDy4DwM/gEELNrq1lSXY2r+7b1+JL626aFIV/7dnDz8XF3D96NFdER+MjUtD0GoqqUlZfz9pDh/j33r3srKho97hGo5HP8/L4rayM348axWXR0cR6eTm1YB1CqC+np/NWRgYGO3rRWC8v5sXGWl4/u2uXTeUUVWV3ZSUPbt5MtKcnM8ReO71Co9HIryUlfJKTw0/FxTY9kEtOnGDBtm18V1jITfHxXBIZSdiQIXZnT3AEHEKoVY2NdokUIMHbm2cmTLC8tlWoZmpPnaKhC+Pf3uakwcCPRUUcrKnhd8OHE+pAm0ynV1WxcN8+VpWWUnj8OIqd3/VvZWVk1NTwY1ER/5eYyEWRkeidrHd1CKEKTk9eXR2Pp6XxY1ER9UYjb2dm8si4cdwcH9+vAztqGht5MyOD/x04wKGTJzG0M/9tK9WNjfxYXMymsjIujIjg+ZQUIoYM6cbW9i0OL9QAd3fL73VNTTZ5gb1dXS2BDqcUhdoeHPf2FGaHy0dZWTyelkZVY6PlvYLjx7ln40aW5eXxz/HjOcvPr18J9qTBwNbych7dvp0t5eV296Adoagq1Y2NLM3J4efiYh4/+2xujItjqJsbsoM7Bh1eqOXz51t+v2rFCr7Kzz9jmQ9nzODSKNPeH98VFnLZL7/0WPu6G1VVOdrQwLrDh1m4bx8bjxxp9ziDovBzSQm7Kyu5PTGRebGxDPfx6fNIrLSjR3n34EE+zM7meFNTj9VT1djIQ1u2sLywkHtHjuSSqCiHNocdXqgDCaOqsqq0lE9ycvi+qIgKq3jmjjhSX88zu3bxU3GxJRJrmKdnn0Vi/X7TJraUl9tVZlpICNOCgwGT1bRw3z6byp1SFFaWlrK7spKcsDCHDmgRQnUQMmtqWLhvHytKSsg7dsxuc3FnRQVZtbX8VFzM74YP54ro6D5ZSXSkvt7uMjNDQ3n87LMBKD1xwmahmqloaOg287qvEELt5xxrauLDgwd5Zd8+Co4f75LD5XhTE6sPHWJbeTlf5OXxn0mTGObl1Y2tFfQUQqj9lAajkb2VlTyyfTurDx3qVodLnRY7+1NxMY+OHcsdI0bg7+6Org8dLrIktXAMHrWxFwxwd7c4io43NXHCYOixNvYlQqj9kD2VlXyUlcVbmZnU9aDDpdFo5J9pafxUXMy9I0dyxbBhDOqjhfX+7u4cuflmy+vwJUtsWg2175prCPTwAODR7dt5xs75ckdBCLUf8viOHXxXWIg9feg4f38u0TzZqqry5M6dNpUzaEsFM2pqGB8QwHA7t6wX9A5CqP2Qow0NdokUYHxAAE9oDhcVbBaqmerGxnYX3Av6B447sSQQDCAcvkettJpLtHVt6rGmJiobGmg0Gtlw+HBPNa1HCLVaNH20ocGmXjDA3d2ysuSEweCQkVgDHYcX6ozvv7f8Xnj8uE1lHtm+nRd278agKGQ7WCrR0ptusvye8vXXbD969Ixlfpk7l7H+/gD878AB7tu4scfaJ+gZHF6o6VVVdpcpPHasB1oiEPQcYowqEDgADiHU6CFDen31hyxJGBTFbu+rQNATOITp+1xKClNDQvj7tm1k19VRb0P0SYPRSIkNE+Ydoagqj27fTpy3N4k+Pk6ZNaA/oWirgqxf20JlY6NlgcFJJ41KAgcRqiRJXBQZyTnBwSw6cIDPcnPJqKk5bQaGNYcOEbFkic11uMoyTa160L1VVcxbuZK3pk1jQkCAw69p7M/UnDrFLCvHoC0rgwCu+vVXy/K1zgT8OwoOIVQz3q6u/Ck5mdlhYXyel8cnubkU2+jp7QhXWWZcQADnh4XxTWEheysrW7yfXlXFvRs38sLEicwMDRVi7SEMitIpx2BGTU0PtKb/4RBjVGtcZJmzAwJ4ZOxYlsyYwY1dSDfi6+bGw2PG8NbUqfxt7FjenjaN5Hby+u6urOTv27ax9vBhh18uJXBMHE6oZrxcXTknJIRF55zDF7NntyuwjpCAS6Oi+O2yy3hk7FhG+/rirtMxPiCAT2fPJqnVuRRVJa2igj9v3syuykrhYOoCo4YO7fU647y80DlwdgdwYKGCSXBDXFy4JCqKXy+6iIfPOovQQYM6XK7lrtMxxs+PpbNm8eV55zHcx6dFbywBiT4+vDVtGuP8/VuYueY0oretW0dmTU2fibWsvt7yY2tsblVjo6XMsT6MSjqlKPwuIcHum67m1CkKjx+n8Phxmx2EsiQROmgQDyYlseHSS/FycbG/wf0Ihxqjno4gDw+emziRS6OjeW3fPtYfOcKhEydQMX1piT4+XB4Vxe2JicScZrG0BEwICOCFiRP5+7ZtpFVUtDB391ZWMm/lShZPm0ZKHziYZv/wg+X33Lo6m8rcvWED7trytSobnTTdzQmDgWV5efxlyxbsDf1/JT2dV9LTbT4+0MODacHB3D1yJOeGhDh0riQzTiNUMIlsclAQyb6+/FBUxCc5OWTW1DA7PJx5MTFMCgqyKZu6LEnMDA3l+YkT+fPmzexux8F0Xx85mPZ1wuGSY6Oge4qTBgOf5+by1M6dLaZgAHSSxNTgYPZWVbXIpNgZBun1nBsSwg1xcVwcGelUuxw4lVDNDHFx4eqYGCYHBVHR0ECMl5fdia1kSWJ6SAhvn3sut61b18YbvEdzMD0/cSLTQ0KEN7gDjKrK1/n5PJGW1sZDr5MkboqP569nnUXR8eMs3LePlR3sb3s6JCDe25s/jB7NRZGRRA0Z4nTfh+PbBB2gkyQihgxhrL9/p7PPyZLEOH9/Pp01q42DydjKwdSd9MV+rVFDhvRIsrMfi4r4/aZNFB0/3mJcL0sSVw0bxpPjxzNi6FAuCA/n45kz+e+UKYTbkeVfAu4YMYJfL7qIu0eMYJinp9OJFJxYqN2F2cG0WHMw6TpwMGV0o4Pp3XPP5UvN+2xrapRjp06Rf+yY6cdGU1fCNLa/c8QI1lxyCbHdmOjslKLwVX4+16xY0WYfGZ0kMTcykhcmTiRS2ytGkiR83dy4a8QI1l96KTfHx+PXQeJssxPx3JAQNlx6KW9OnUrUkCFOMRbtCCkycdwZ7y8vT0/St63theb0XxRVZfWhQ+06mACSfH15c+pUJgYGdtsT/cjJkyzOyGBZfj4ZNTXdmoHB392d1KAg7h4xgvPCw7t1JzRrx1HrMamsRZm9MnkyMZ6eHZ5DVVV+Li7mzYwMNpWVUallvXCVZcb5+3NdbCw3xcfjZ5UQzZF498Ol/PO5l2w+XuftH/LEmQ5yc3Pj3jtu7UKzHB9Jkoj29CTO25s9lZVtwtXK6+vZVVlJnLc30d2U4HqIiwuTgoI4OyCAwS4u5NbVdTme1V2n49zQUP6UlMSCsWNJ9vPr1uyDJw0GvsjN5Z87d1J68mSL93SSxLzYWF5KTWXYaUQKps87ztubGaGhRAweTF1TE+46HXeNHMlfzzqLi6OiGOzAUy679qSzbuNmm493SmdST9EXDiY3nY7UoCBGDB3KFdHR/Hf/fr4rKOBUJ3rXiCFD+MOoUVwRHU20l1e3b9Rsdhw93oHj6Mb4eJ4cP54oGzdvkoDgQYO4dfhwpoeGcsJgYLi3d58kDu9rnNeo7yFkSeLsMziY/tTOlE5X8XF1ZVpICO+eey4fzJhBvLe3zWUl4Ma4ONZfcgkPJCUR5+3dI7up/1RUxL0bN3boOHpq/HgiO7HDmossE+/tzRg/vwEpUhBC7TSJPj68OXVquw6mPZWV/K6bHUxmPF1cuC42ltUXX8x9o0YR6OHRocNlsF7P5KAgfrzwQj6eOZNoT88e2ZX7lNHIsrw8rl6xok0eYp0kMTciooXjSGA/QqidRAImBgbywsSJbcINoTmCaXNZWY8E8ocPHsx/J0/ms1mzCNYSUFuT7OfHP8aN44vzzmNORES312/mhMHAp7m53LtpE42tzHFZ8+6+Onky0WcYkwpOjxBqF7COYGptBoMpgun+TZu6dUsKayRJYnpoKCFWmQnB9BB5ZOxY/pyc3CJrYXdjjjh6Ii2No62cazpJ4rrYWF6bMuW0IZsC2xBC7SJmB9O7555Lsp9fm/fNS+TWHT6M2otL5GI8PXt0XtGoqnxTUMATaWkUHDvWwsTXSRI3xsXx7IQJnRqTCtoihNoNnCmCaUdFBQ9u3syeTsTp9ld+Kiri7g0b2nUcXREdzVMTJhApzN1uQwi1G0n08WHR1Kmc3crBpGoOplvWru0RB1Nv0mg08mVeHletWMGxDhxH/5o0STiOuhkh1G5EAiYFBvK85mBqHfRgdjD91kMOpp7mRFMTn+bm8vtNm9rM45ojjl6dPPmMwQwC+xFC7WbMDqYXJk5sN+tEelUVf+xBB1NPUW8w8EVeHv9MS6O8A8fRf4XjqMcQIYQ9gCRJRA8ZQmpQEJvLyylrJ9zwQHU18d7eRA8ZYne4oUFRyKurY9WhQ3yVn8/K0tI2G/iWnDjB7spKcuvqaDQa8XN3x7WTziVFVfkyP59HduxoMyY1O46enjCBKNGT2owIIewnSJLEGD8/Pp01i3krV7bIsGdUVXYcPcoDmzfzwfTpjGnHW9weh06c4J2DB1mWn092bS0GRUEBjO2EE/5UUsIvJSXIkoROknCTZS6IiGB+fDwzwsLs2rD4p+Ji7tqwgeOtxqRmx9HTEyYQIby7PYoQag+T6OPDG1On8sdNm9hdWYlRM3dVTGPWW9au5dNZs9pN8q2oKtWnTpF29ChvZWbydX6+pfyZUFUVI6aHQhOmhOSf5+XxRV4ew318uDMxkStiYgj28MC9gyyOjUYj3xUWctPq1W3GpDpJYo7mOOpOkRpVlaqGBhoVhSAPjx6JpHJEhOnbw0iYoohivb05UF3N4VYrSsrq61l/+DBn+foSPniwxQyuNxhYUVrKC7t38+zu3eyqqOg2b3FFQwO/lJTwY1ERBkXBz90dn1ZrP080NfF5Xh5/3ryZ2nZ60os1x1F3jkmrGhv5tbiYJ9LSWJSRgaqqDHVza9M2Z8Be01cItRcwL5GL9/ZmV2Vlu2PWPVVVxHh5MczTk4O1tfxr925e3LuXTWVlNu/7ai9VjY1sOHKEfdXVDNLpiPH2xkWWqTcY+Dwvjyd37qS0VdY/nSRxfWws/0lN7bawQFVV2XjkCP/es4f/7t/PzooKjtTXs/rQITKqq1HpuQwUfYUYo/ZTzBFMH0yfzi1r17ZZIre7ooJHtm1jU2Qkq0tL2VJe3q0LxTuiwWhkjSaIPVVVPD5uHN8UFPDYjh2UaFkczZgdR/8cP77bzN3iEyd4Ze9evi0spPD4cQxW19xoNLKitJRdlZUsLyzk4TFjmBAQ0C31Ohoiw0MfkFFT08bBBCYzWZYkFFXtk6AInSSREhDA3qqqNl5ks+Po5dTUbhFpo9HINwUF/GPHDvLq6s449pYkCVdZ5r5Ro3h07FiGOniGQXszPAyokbqiqlQ1NlJ0/LhNO8L1FIk+PrxxzjmcHRDQMoIJkzOlr2ZXjarK5vLyNiI1Rxy92A2OoxMGA7sqKpi/Zg3z16whu7bWJgeZqqo0Go28vHcvU7/7jqU5ORytr3foKC97GDCmb73BwIYjR1iSnc2eykquGjaMy6KjGTl0aK8nxZKA1KAgnktJ4ZFt29hx9Gi/veHMEUcv25A+5XQ0Go0cqK5mWX4+b2VmtgmasBUV2F9dzV0bNnBxZCTzExKYGhzMEAdOy2ILTi9UFdP474OsLH4oKiK3rg4VSK+u5qfiYq6NjeXqmBi7UlR2B7IkMSs0lN8iI9lZUWHztEtvIgHXx8byXEpKp3tSFdP879KcHL7Iy2NXZWWLcWhnOa6FM246coRLoqK4KT6eCQEBTpuJ0KmFerShgXcyMvg4J4es2toWzhlFVdlSXs6Bmhp+KCrij0lJzAkP79UvOqu2ltWlpf02lFDFtL1Hp0WqLYV7OT2dvVVV1PbAvjfFJ06wODOTNYcOcV1sLHePHElgOwvpHR2nFKqiufsf2rqVtKNHO+ytVKD21ClWlZay7vBhro2J4T+pqb3yRdcbDLx54ACby8v7rdkL8NTOncyLjSW4EwvQ561axdcFBd3Sg54Og6KQUVPDkzt38kVeHhsvu6zTSdf7K04l1HqDgUJta4T3Dh487Y7k1qhAk6KwJCeHFaWl/H3MGK7SonZ6ooc15wj+qqCgV6ZgukJlYyN3rF/PF+ed12EEU0ekVVTYLdLHxo3jn+PHA3D45ElCP/7Y5rJGVWVfdXW//0w7g1MI1aAo5NTV8W1BAYszM8nrwqZI5fX1PLxtGz8UF3NrQgIXhId3e5LnmsZGlmRnU9TF3dJ7i19LSviuoIBrY2P7uikDFocX6rFTp/gkN5dPcnLYdvRolxNUgzbRXlLCnspKZoeGcnNCAjPDwjq9+qQ1aRUV/Fhc3C3n6g2aFIV3Dh5kZlgY/g6amd7RcVihqqrKmkOHeE6Lg61qbOz2sV55fT2f5OayqayMiyIjeSApya58uh2xODOzRxwrPYWKaR3t2kOHuDompsvn83F15ae5cy2vL//llzZhle3x/Zw5FuvmrYwM3j14sMttcRQcVqj/2LGDl9PTu6UHPR0qUHj8OG8cOMAPRUV8Pns2KYGBnT7fkZMn+To/v/sa2EscOXmSlSUlzI2MtGuJXHvoZZlJVp+hq41j33H+/paMiz8VFXWpDY6Gwwo1q7bWbpFeFBnJ93PmWF5LixfbXNYs2NY7k9nL25mZ/XLO9EyowK6qKtKrqhg1dKhNZfrrtJMj4rBCdUQMisIyB+xNzWRWV/OfvXttzuRQ08UdxAXNCKH2IvnHjpFVW9vXzeg0ddoaVUHv45RC3XbFFZbfH9qyhXWHD5+xzMupqUwJDgZg3eHDPLRlS7e3a083hc8JBh5OKVTrNYu2LoeK9/a2lGu9WLq7OFBTg5CpoDM4pVB7knqDoU3iaVspPHbM4R0sEjBIr7cpc+JJg8Hhr7e/IIRqJx9lZ7PhyJFOld105Eiv7j/TE+hlmd+PHm1T4MPzu3ZRKRxK3YIQqp04ste2u7ht+HASbAj8eOPAASHUbkIIVWAX3WHKHm9q4u4NGyyvq20U88Nbt1qCLXYcPdrldjgSQqgCu3DT6bqcv6fBaOTNjAy7y32Und3Fmh0XIVQ78dDr0Xcyx2yj0dgmkbWjMcTFBdlJsyj0Z4RQ7eTm+HiGdzIw/+eSElb144wOthDs4WHzKiI/Nzd6OzzCx9XV6ZJ1gxCq3Vw1bBjnh4d3qqyHXs9aB9vFrTXhgwfjZqNQn5kwgQ+ysvimoKBNZsPuxkWWGR8QwK0JCQxxokTdZpzvioA7rRwVu1sluu6I1/bv59vCQsA039kTjB461OGf9ok+PjZnrD8vPJwx/v5cHh3N87t3s7Oy8ozTU4szM1murYyxNVODl6srDyYlcVNcHJGent22brg/4ZRCfasTjoqfe2Eh99kBAbjJco9tUdHTyJLEqKFD7VrmFuDuztUxMcwMC+OlPXt4dd++0/auR06e5Eir/XlO157ZoaG8MXWq0+/L6nyPnn7MIL2+02Zzf2CYpydx3t6dsgp83dx4JiWFtZdcwqVRUQR6eNi9L6yZwXo9k4KC+GD6dL6/8EKnFyk4cI/q7eqKTpJ6dW3nEBeXLptVtyYksCw/v19nHuyI0b6+XRbF+IAAPp01i2X5+SzJyWHTkSN2hWQm+/py5bBh3BgfT6ynZ6fF7mg4rFDvGjECd52OD7OyqOtk7K2tyJLEcG9vbhs+3OZF0x0xPSyMRB8fMmpquql1vcMQFxdSAwMJ7oZUqh56PdfHxTE5KIgfiopYnJHBvurq05YJ8vDgpvh4ro6JYayfH252ZkR0dBxWqOMDAoj39ubamBie3rWLlTZMe6w/fJizvvzSrnr0sszdI0Zwz8iRxHh52Z0yszWD9XpuT0zkLz2wjK4nCR88mPO7MUG5TpKI8fLizhEjmBsZyTuZmby+f3+bh66rLHNeeDh/SU7m7IAAPJ1864qOcFihgsn8nRoSwtcBAXyQlcUzu3ZxqNVWgdYca2pib6sd1DpC1nY2e/2ccxjn7999jQaujolhcUaGwywilyWJWWFhjOnmzwFMkU6xXl48M2EC18TE8OctW9hw5AhGVcXfzY1nU1K4OT5+wPWgrXFooZoZpNdzz8iRzAgN5cU9e/i1pIRDJ092ar7SVZYZMXQotyQkcGtCQo9s7xfk4cHtiYk8vmOHzUnC+5JgDw/uHz2anhwNSpLEWH9/vj7/fD7Oziavro4/JScT1st7AvVXnEKoZhJ9fHhz6lR+LSnhw+xsVpeWcrShweby8d7eXBIVxc3x8ST7+vbYnKe7TselUVH8WlzMmsOH+3UAhIss849x42xaLdMdeLu6ct+oUb1SlyPhVEIF05jywshIxvn782tJCe8cPMhvR45gOI0Yhrq5cWV0NDfExTE5OLjL41BbiNPGZxk1NRyycd6wL5gXG8stCQl93YwBj9MJFUxZCIIHDeL6uDhmhoXxeW4uz+zaRVWr5VSyJDHe35+/jx3LtJAQfNzcetS8s0Yvy1wSHc3uykr+tWdPv0whmhIYyCNjx9ociSToOZw64MFFlgkfPJg/JSez/5pruD421rRMS5IYotfz1PjxrL3kEi6LjmZoL4rUjIdOxxNnn02KVY6n/sTJpiaHz0jhLAyYR2XwoEG8c+65XDlsGFvLy7lt+HBGdHFOtKvUGwx8U1hosye6t9lXXc31q1bxwYwZJPv6Dpjggv6IU/eorfHQ67k6JoYXJ03qc5GeMBj4LC+Ph7du7fGVJV1hT1UV89esYV0/d3o5OwNKqP2FRqORL/PyeDItjZJWWy/2ZZ+VEhDAaF/fNn9Pr6rir1u3OvxaWkdGCLUP+K6wkAVbt1Jw7FiL4AxZkrghLo7/pKbi04s7ZrvKMjfGxfHBjBl8Pns2Z/n5tXhfBXZWVPC3bdvYXFbmkHHKjo4Qai+iqCo/FBVx0+rVHKmvb3HD6ySJiyMjeS4lhQeTkth/7bVcFBmJiyz3WC8rSxKhgwbxcmoqb02bRqKPDyN8fJrHpFbHGlWVtIoK7tm4kcwzxOUKuh8h1F6i3mDg01W6rYsAACAASURBVNxcrlu1qk3eJFmSuDAigpdTU4kYMgSA0EGD+OK88/hg+nRmh4cT7OHRbYId7OLCCB8f7kxMZM0ll3DvqFEtpmCShw7l1cmTGR8QgK6VAym9qorrVq9md0WF8Aj3IgPG69uXnGhq4ou8PB5LS+N4q6BznSRxeXQ0L06axLBWu6R56HRcHxfHrLAw1hw6xJpDh9hdWUlWbS01dm7cLEsSwzw9GT10KJOCgpgTEcFZHXhyJUliWkgIz6Sk8LetW0mrqGjx/t7KSm5Zt45XUlM5NyTE4bNWOAJCqD1Mo9HIl/n5PLlzZxvHkU6SuDEujqcnTLD0pO0R6OHBvNhYLo2KIqu2lrxjx8isrmZ/dTX5x46xs6KiTcywn5sboYMHEzFkCAne3oweOpQ4b29ivbwI9vA44yoYWZKYFRrKq5Mnc8/GjaS3mkJKr6ri4a1beTYlhZmhoUKsPYwQag+zvLCQh7dupbzVmFSWJK6LjeWf48efVqTWeOj1nOXnR7KfH6ciIjhpMNBgNHLBjz+2EJIEvDt9OuP8/XGTZTz0egbp9XaLSZYkJgcH89ns2Vy3ahV7rfJPqarKzooKFmzdysIpU0gNCupTj7WzI8aoPYRRVfm+sJAbV6+m7DSOo2gbNwW2RsK0PGyomxshgwa1m3UibNAgwgcPJsDDw5SLt5M9ngQmB9P06ST7+bUwlc0Oprs3bCDTwRbCOxpCqD3ASYOBz3JzuWH16nYdR3NaOY4cgbN8fXklNZXx/v7tO5hWrWKXDVkGBZ1DCLWbOaGJ9G/btrXJBaSTJK6Mjua/U6Y4XEIuSZI4NySEZ1NSGNNqnhVMDqbfrV3LWhHB1CMIoXYjp4xGluXl8dTOnRR34Dj6T2pqG++uoyBLEjNDQ1k4ZQpJ7UQw7dUcTKscPMl4f0QItRtZXljIQx1EHM2LjeVJOxxH/RVZkkgNCuKz2bNJbh3BZOVg2lJe3qkIpprGRl7cs4c71q9v87AbyAihdgPWjqPW3l1rx1GUg/akrTE7mN6fPp2z2nEw7eyEg6nRaGTD4cNc9PPPLNi2jbczM0n+8ksWpqdT09g44HvoASVUo6pSfPw4eyorqTt1qlvOedJg4NOcHG5cvZrG00QcRTp4T9oeY3x9efkMDqadFRWnFdlJg4GdFRU8tGULF/38M7+VlVmOrzl1ir9s3co1K1eyvLCwzcL/gcSAmUc93tTET8XFLM3JIbOmhjnh4VwTG0tKQECnU2CeMBj4IjeXx9PS2qS51EkSV0RH8692Io6cBbOD6ZmUFBZs3crOdiKYblu3jv+kpjK9VQSTUVXJqqlhWX4+H2Vnd5iRsUlRWFlayu7KSq6IjmZebCxTeildTn/C6YWqAlvKyvjf/v2sPXyYUi2daFZtLasOHeKK6Gh+N3y43fOZpxSFZXl5PHkax9FTEyY4ZU9qjTmC6b9TpnD3hg3tRjAtaBXBdNJg4MOsLJbk5LCzooKTNqzHrWho4K3MTNYdPszFUVHckZjIcG/vAbOY3amFWlZfzyvp6Xycnc3hkydb5CVSVJX0qipyamv5oaiIh8eM4YroaJt71+8LC/nLli1tshw6k+PIVqwdTK0jmBRtzPrw1q28NmUKKrBg2zb2VFRwrKnJbodTVm0tr+/fz8/FxTyQlMQtCQlOuXtba5xSqCcNBlYfOsQj27adMc1JvdFIWkUF81au5HLNVI0cMqTDL9+oqvxYVMQNq1a1GZPqJIm5muPI2XvS1pgdTO+dey63rVtHelWVZaxpdjDN/eknjjU1dTmRW6PRyIHqau5cv54l2dm8mppK4tChTp2k26keRXWnTvHbkSPcvWEDV69YYVcuIhX4uqCASd98w/O7dpFRXd0mqsjsOJq/Zk2HjqNXnNRxZCtj/Pz4T2oqZ7fjYKo5darbsy2uO3yYqcuX8+j27exuZ3GCs+AUQm1SFHZWVPDsrl1ct3o1H2Vnd3oP0sqGBp7ZtYv/W7+etzIyLHt1miOOHtm+nZpWHmOdJHH1sGEOGXHU3ciSxHQtgsnf3b1X6jzW1MQr6encvn49/923zynF6vCmb01jI29lZvJZbi77q6u75Us6pSj8VlZGRk0NywsLuSUhgZMGA8/s2kXRAHYc2Yo5gmmIiwtl9fV2lb06JoZ5sbGA6bu9Y/16m8oZNPM6u7aW2xITnc4r7LBCVVWVn4uL+fv27WTX1vZIJr/qxkZ+LSlhS3k5ALWtelJZkrg2JmZAOY5sRZakTkUmjfTx4ephwwA43IkdBI45aS5ihxXqgm3beCU9vc048nS4yjJeVknDKmzYl0alrUChpeOoLyOOGo3GNuM+FfgyP5/IIUPwdXdvM1YUOB4OK9T8Y8fsEinAeeHhfD9njuW1tHhxp+q2dhz1lUjrDQYya2pYkpPDwXZC9f69Zw/rDh3i96NHMzM0lOBBg/qgle3jKsvMDAuzvF576JBNQ5YZoaEWz252bS25dXU91sb+hsMKta/QSRJXDRvGCxMndmrRd1dRVJXcujqW5eezJDu7w526DarK5vJyMjdt4sKICFPupdDQfrGPjJerKz9deKHldeTSpTYF4C+ZOZMQ7YHz+I4dPLlzZ4+1sb/R99+ag3GDluOoLxxHBkXho+xs3s/KYpcWMHAmqhsbWZqTw6YjR7ggIoK7R4zgLD8/kePIwXBKoRbdcIPl9zvWr+eXkpIzlnl/+nRmhoYC8EtJSYfexmtjY/vEcbTj6FH+smULOysqON6JiJ7C48d57+BBVpaWcu/Ikdw1YgRDXFx6pK2C7scphWotJFtNPX93d0u5083/ufZgQuzWGFWVQydO8GZGBq/t39+uU8semhSFvLo6/rJlC1/k5fFqaipJfn546PUiMVk/xymF6gyUnjjBqtJSXtu/n7QzLBXrDFvLy5m2fDm3DR/OLQkJJPn5MbgfjF8F7SO+mX7I8sJCPsjK4qfiYptWlnSWU4piWZFybWwsfxw9mqFubj1Wn6DzCKH2Q17fv9+mcbU154eHc++oUaYXqsrlv/5qUzmjqpJRU8OLe/YwLzZWCLWfIoTaD7HFm9uaaE9PLouKAuhURNBJgwGjnfPSgt7DKYLyBQJnR/SoDsbFkZGW3zceOdJmJU97TA0OxlsLnSw4fpx9diz/6wkMisKWsjLLa1tXOqVVVOCvmeYlJ070SNv6K0KoDsZyqxDIlK+/ZvvRo2cs8+rkyYz19wfgfwcOcN/GjT3WPls41tTE9atXW15X2RBzDXDvxo2WuOWaAZboTAhV0OsYVZWCY8fsLjeQ8/w6pVCvWbHC8vs2bYnamXhu927eP3gQgNJOLK8SCHoSpxTql/n5dpfZdORID7RkYDMjJISqhgbqmpp6PIG2hCkKbayfn1MmO3NKoQr6B29Nm8aVw4bxxoEDbCkvp7Kh4YxTRwdra/m2sBAwLSiwBRdZZoyfH9fFxjI/IaHFmmNnwWGF6uvmhl6SMPTian4vV1enS/HRk0ja4vqz/f35uqCAT3Jz2VxWRtNp5ms/y83ls9xcm+uI8fRkXmws18TEkOzn57SL5B1WqA8kJeHv7s7r+/fbNEXRFWRJItnXl9+PGkVyO7uYCU5P0KBB3J6YyIzQUL4tLOTl9HRL0rjO4uniwrUxMfxu+HDG+vszyMnjlB326hJ9fPjHuHHcGBfHgm3b+L6o6IzjoBWlpQR99JFd9ehlmb8kJ3P/6NEEuLt3evuLgY6LLDPcx4cHvLy4JiaGx3fs4LPcXLuzdEhAsp8fT40fz4zQUAa7uAyIlT8OK1QAN52OEUOH8umsWXyel8e/9+whq7a2wy//lNFIuQ1Z8SRJYohezznBwbwwcWK7e4EKOoerLDPM05O3zz2XK4cN45ldu9hXVXXGVCx6WcbX1ZW7R47kT8nJlgCOgYJDC9WMh17PLQkJnBMczKIDB/i+qIjs2tpOJXt21+lICQzk5vh4romJ6Xc3xEYr77StMcG7KystWRr7S54hV1nm8uhoUgIDeSsjg6/z8zlQU9Nm/CpLEmGDBjE7LIw/JiVxVju7nQ8EnEKoZmK9vHh+4kQujori09xcviso4JAdY6EkX1+uj43limHDSPD27pfpSm6yiug5bGPO3Ee2b7dMWXQm4L8nCR00iMfOPpuLIiP5NCeHZQUFFGobQXvodMyNjOSGuDhmh4U5pTfXVpxKqGBKPjYtJIQkX1/mRkTwv/37WXnoEIbTjIX83d25OT6eG+PjSRo6FNd+7Nkt7ER0Tmfy4/YmEjA+IIAEb2/mRESwODOTgmPHuH/0aM4NCSFs8OB++dDsTZxOqGD64n3d3LgoMpLpISF8kZfHw9u2tcnjK0sSkwMDeTolhYmBgWLqpY/xcnVlZlgYqcHBGBWFwS4uTjvdYi9OKVQzsiTh6erKbYmJXBwVxeM7drAsP5/jBgMB7u78KSmJO0eM6BcpNK2ZGhxMdl0dlQ0NvRbRc5avb78wLWVJEilh2mHAfCKBHh68PHkyl0RFsbuykmtjYojz9u7rZrXLcykpXBgRwesHDrDhyBHKTp48Y0RPXl1dc+ikjeKWJYmxfn5cHRPDLQkJlpy5gv7HgBEqmDy6cyMjmWu1prM/IkkS54aGkuznx/eFhSzNyWHd4cPUn2YKY2VpKStLS22uI9rTk2tjYrg6Joaxfn5ifrifM6CE6mgMdXPj+rg4zgkJ4ceiIl7Ys6fLS70Gu7hweXQ0dyYmMj4gwOkjepwF8S31c/RagMBdI0ZwbWws/0xL4+3MzE7t/xrv7c1zKSnMCQ9n0ACJ6HEWhFAdBL0sE+DuziupqVwRHc3TO3ey/ejRM243qZdl/N3cmJ+QwIIxY0SWQQdFCNXB0Msys8LCSPL15ePsbD7LzWV3ZWWbsElZkgj28OC8sDDuGTWKiYGBfdRiQXcghOqgBHp48GByMueHh/NFXh6f5eaSVVuLiino46LISG6Mi2N2eDi+ohd1eIRQHRgJGO3rS4yXF+eHh/POwYMcqKri3lGjmB4aSriI6HEahFCdgEF6PZODgxkfEIBBVfHQ6YRAnQwhVCdBwrTsTxi5zomY5RYIHAAhVIHAARBCFQgcACFUgcABEEIVCBwAIVSBwAEQQhUIHAAhVIHAAbBZqL23cYRA4PzYm2HHRqGqGPpZmkmBwJExnGF5YmtsEqqiqpw40b9TTgoEjsQJO1O42iZURaGyqrpTDRIIBG2pqq6x63jbhGpUKD0sNvoVCLqLI2Xldh1vk1ANRiN5+QWdaY9AIGiH/MIiu463TagGA5lZOTT28D6kAsFAoLqmlsLCYrvK2Dw9k5WTS0GBfU8BgUDQlq+/+4GmnvD6AmTn5rM/MwvFzo1nBQJBMw0NDSz9/Cu7y9ks1GPHjrNm/Uaqa2rtrkQgEJhYsWY9ufmFdpezPTJJVVmxah25wqkkEHSK+voGPlzyeaesUrtifesbGlj4v7eob7V9oUAgOD1Go5Fl337PwZzcTpW3Oyh/4+ZtfLjkcwwG+7dUEAgGIqqqknkwm2Xffk9tbV2nzmG3UFVV5bU332XF6rWdqlAgGGhU19Tw/pLPSN+f2elzdGqZW92xY7zy+mK2bE/rdMUCwUDh3Q8/4fufVtDUhYUtOm//kCc6U7Cisor8gkLOShqNv59vpxsgEDgzi9/7iJcWLuqSSKELQgU4fKSMzKxs4uNiCAoMQBLZ2QUCVFWluqaG1xe/x0sLF6Hau/i0HbokVIBDh8vYtXsvnp5DCA0JwV1sSCQYwBiNRjIys3jtzXf57Mtvu9yTmumyUAEqq6rZvHUHZeVH8R06lIAAf2Sx1bxggFFf38DnX33H64vfZd3GLTQ2NnbbuaXIxHHdlmVFr9cTERbK7JnTuOXGeUSEhXbXqQWCfktDQwMr1qznwyWfczAnt9NTMKejW4VqjZurKxfMnsHNN1zDuDHJ6HW6nqhGIOgzqmtq+fq7H1j6+Vfk5hf2aBx8jwnVUoEkMdTHh9iYKCLCwggM8MPT0xM3N1dkWUa4nwT9HVU1LfU8cfIkVdU1HCkrJ7+wiMLCYrtXwXSWHheqQCDoOsLjIxA4AEKoAoEDIIQqEDgAQqgCgQMghCoQOABCqAKBAyCEKhA4AEKoAoEDIIQqEDgAQqgCgQMghCoQOABCqAKBAyCEKhA4AEKoAoEDIIQqEDgAQqgCgQMghCoQOABCqAKBAyCEKhA4AEKoAoEDIIQqEDgAQqgCgQMghCoQOABCqD2FqnLHm79SmJHGxpfnmLI4CwSdZOAJVVVRn/mSwow0Vj2j9oiAVFU1/WA+t2L5mx1nQVVVXvghjcKML3lBVYHeFrstbVBR1X+wKiONwq2LuKNT7VRR1Zv4ZGtXzuHc6Pu6Ab2JqpqEadGLqqCqpk01um1vV+0mU1WFN2+fySJVRZIkJEmmuYoz1aW10VrYqoKKZCp5urZOvomnbpnF6COfccXjP9lQV2fbAKigYv0AMl23Te1sVY/pwWZ9DhlJUrvQfudi4PSoFpEqKNqNpapGVFWxvNct1WDVoyqK6abTfrCxGlNzFBTFqB2vnUux7qXb1qyqKmrcFC6flkxclJ/lwdSp6zhDG1SzSBXtx3z1imIlOtvrUZVmsWP53DrVdKdkwPSoZgEpikLzPWFEUUCWJZC0XsB8i1nfJJYupJ2ztjmunYq199TmvqZt2RbltYeKojQLwGhA1elBkUFWTOex6tosDwfLtZnKI5mexc0WQ3tt7ujaWrfBiKoDyfSPVp+CYrTqUY1GVECSpdOcu20dilU95nOYuhGzJTKwe9aB06PSbJJaTDVLj6qg3rKI9Iw0Vj2tMuPPC1m1eQuFmTtNP1uX8949Ca1MvCk88v5y0vdrx+zfQvqaZXyyYA4mi02CF77jUN5+1r4gmcxfJCRVRR11G4t+WNd8/m3L+WTBHO54fx2FGcv4l6JaejNL643DueVfn7Fzx26KMneZ6vviYS6LMAvmZj7dvpuSv6fgBXhN+jPFWXsoOriMf6mmXir8uqdZ9ZvVde1Zx8aPn+GO5NZjQlXTkNqyDYqxeaytFTG108psVYya1fIYqzJ2UvjDP7TPzVKgeUz7w2MoZovDqkdVb3ieNdu2U3xwN0WZO0n/YSGPTO8Zf4KjMHCEah4HtTDLFNPT3MrM8h7/PW/ePIyy5c8yJy6J1JvfYpMxjJn3PcO/JisWc/aOD57hzoleZH+4gNT4ZFJvfZYP0utoPLHb1HO2c1OpqooaeTOfvHUfF4bV8dML/0dq3BzmvZFB+PWPc3+CK+aHiaKY6wLw4px1n/LXkbm8cc8FhMVdy0PLS3AbPY+nn7zRdJzxPa4ZM5Kgp7ZQC9T+9hzB0YmExV7CXxQjyuTH+ODRC4moW8+jVyYTHn8t819bQXlTAzm71TYaUNv00iqYhwlYP7BUK5Fpw4nW5rDVeVqPaS3vmXvUQeNY8NexZC26i0mxo7hgwVcU+Z/Dnc8u4o5Iex1yzsOAMX0tWAlVtbrRzDdbwNA63rvvSv6+Sjto43+4+utzOHzbCM6+wIiyUQLlD8xN8oS6rXz/5HcUANKmL3h+85eAqfdseUOZTG5Zkpl0/zymDIXsLx/ltkVbAChY9AcmZi9k69vn4QUmE1NVUTFvjOuFe/ZLzLr9PUpkGUmS+fjBN5gz5UVmDT+H+cp7vKeqKEZjsxmqKihG096dOiQmX5NCnA6yt9/PO7tUJGkfK//3D1a/ISNp58RsCbTQgrUzyWyRyFh7spsvVQUFFNmIbBav1itLsox1T61avadaD0f0dWx4Yiq/+0KHLOuQPnuE84NiyH8whYeevY03b3wHkzk8sEzhgdOjtkcrB5MK1O77hod/aUIxGpp/SmqoBbz9L9TEoPV0g8JImtGEohgsN1zzzdvstEI1oCoKRmUOd00KA8MBVv55k+X8RqMB4y/3sCEHLGM0VQHFLJNifp3/JoWKUavfgGL8hrI6wNOTCKXZMlAswlIszjJFMVr+Hhg6n3CjAcXYsr3tDZlb/jGOG4qyOZR3gJLsvRRn7aEkey+H8w5QXnwNCZYyimYyWz0OtfZZPmujVRuVVs682izWf6Jdj2K6VuMrP7O9DtwSUriz9fEDhIEtVMyeS2tRNY9jzT/me85tkC+qYkQxvsz3O+tAH86Vi9PY8P5j3JDUXs9jfq2gqEZUJZHAoUB1OXtbiKSV08ZK9K0aq53eqifTu+GlHSup1i4XCbSpJ1VR2LBkM1mN4D15ARvTvuV/d00k0kbfrOmoHJaExRAUlUDIsJGExo4iZNhIgiIT8A/7jCzrg81WCgBmz3Gziau06m0tY9726lZVVOVtio4CXv7EmT3CNrXceRjwQm2eC7T6g2a+mkxCKxPLbF6qRl6//hIe/nI/5UYvEmbcxH+WHyTz239wZbR2z1nde6p5LGwcgpseqC1nmXl+tXUdmBw0oGLySmmYj9V+WqBoJrLUSqhW51Y3/I3Jd73Fypw63AJGcuXfP2Tr/pV89IcRlmPa9/1ajT8VBdVoNFkQRoOVJdH6s7QaS2qmLlYPvpZzptp0j3W7pebrlDSvteV0FmG3doA5N0Ko7dh8JgFpYyRJtrqBm3tA1CLe/sNcRkRfxAOv/UJ2HXglXc+zz9zSfFNaukBrxxDgFchV1nXIurbia4X5xpVlHbIkt5xuwXzjSs1BBpLZ0yxr404Jfn2WeVOTOPuaZ1myvYTGQeHM/MML/GuypS8/A1aWhmI9T9zSuWRqT67JNDd7260eW+2Ogc2XI9F8nebPpcXUktVnO3B0KoTaBksUkSYGybqbkqyijMxP+318/OxdTJ77EekG8Bo+lVstQRRW51VVVPU3isoB3wCSJeteuyPniNXfJBnZ3MO0uHnbatSMLEkgS9qNL5nmNpEo2LSYBy6fxoI1R0EXw/gLbfWmytr1m87Vtu3tNAKsPofWdahtdAo0fy7m83M7kYFA3VGyrD7bAaRTIdS2mG9CqR0BmW4NSZKQdTpkXbMZqubV0tgInKgjSzPt1DYlv+X7PUdBP4rZ/05tnluVJDjvWVIiTtMqSaKFUNo1VCWkt0so037H6vyyTocs601txmReF55oABqpK7eK0Gp1+1vXI8kykuU8etP/ss4cU2GuVfu3EQxAYAT3WH0IqhrOPZ9eYOV8aoXXaGbfE2HVdoj8ywWkeEH5jm95o9UnOlAQQtWQTvOq5VsSkhzJE0u+5b2/Xce5MToYNoW/fzGf8YMbyVr/IRu0IIq2Z5T4+PG32FAF8Ze9xEcPTiQClVFXP8IPz08nqPH0bZCkjppmfdPmUFYH3qPn8EAykDyJc4bJSNf8mx++eo4/nZ+EJMskzXuV58+LgKqdfP+SUXPQtJ1PbdESs0mq02n/m3t5yXKgRdjSRyxLOwpe47jh5asZpaqMmnknr//8JU/EN1Lb0efb6MaEP3/EO3dMJEJVGTX/VZbdNRa3qs28/tjnp/18nBkhVGj3O7cO0ZNa/FVCksbi7e7J1NufYdmGHCo2LeFPSbVsWPxXrn/ot/anDsw9YeHbXHnT4ywrcOOce95jS+5+vl8wkcKXr2F5edtmtXAOWf8vtXOkBPAuDyxcS5FuLAu+O8ihZa/w8NVwdogb3uHn86fF33K0JI81L84hKP9bHr7pBv5n5X1u0wJr69t8DZYfuYXDyuqTA2SWPPEM7+xpJPLSZ1iRd4BfX/sdSYe/5O7L12i9vjVeuOuA4m+4dWkdU/70Hlvy9rPi0Wl4l/zKszfdyBsFWp3acGQgSVWKTBw3IGwI87yc0WhAMTShKIrFaWSZ69M8sTq9C7JOB0ioihGjweTdNJmQmrknYYkgUoxGS6idpI0lzWVV1OZ6LNMwpphfi6NE8ya/vC6Pm+JyWBJ+Pn+SdQAomkdX1unQ6VxMZVTVdB1Gg6nNsoxOpwdUFGNz6KHF3LXUY26v2VurIskSOp2Lds16bVyI5bqMhiZLPbJOh17viqwzOdlUVTHNATc1acEVqsVB1hx+qJqGEOYhgnZeVTV9/jqdC8iyNu3VfD0WR5KKxWElyzKyzgWd3mxyd2hiOB0DJzJJokVPIMlYxm+SJKGAKexPe23uGVTNcSIjW/lK1OY5d7MzxBz8Lsua+LG8aRalBCgmFZjetZq2UNRLCPICqspJN50ICdVSzjxeliRJCyAyj6FVq2kMFUkG2eKdNs+5KoDUYtpEQnM0SVYPDOvek5Y9pySpzb2ZVe9ucSyp1tdvephY2oFJoJZrNre/hdmslbM+TmkePsja52oxtTseBzglA0eomnloEqkOWZWaezW0FTRmoVrdDJKCqYcwjzKl5l7QfFrzWlNrbyWqiqqFEko0m2yypKBK5mVvVt7WeZdzViA0bvuNdyQZnebUkrUgBvMUjvnGls0PA60HkmRtKgbTQwetxzJHBErWfiKthzc5hc1TIbLleNNFmSyBlvXoLOK1WOBaefOHYfp8JSTVNCOkmCOJsKrbPG9rfqhJEpKqAHpUSbE6tHmqSZZMjqxmT/DAYsAI1XT/SZpZCubhuWSeY0Rq7v+sBCHJssmDq5lhyBKSKpluKFXVfjc/4E03lHmKQrU4lJpvzoi/fcHaq93Y/uNy3lj6Biv3hDL1uttY8PAMAqt+47EHXkdCM1ctvan5YWDu1TWxShJm0xLNQyqbe12tFzU7eFST9pBUHarafO0mD7fOco4WY2HtwWNdj7kN5vqQZJPJbLEotA9DBVWVkcwPpfa+E9nqfKqp17YEezR/a1a9r/ZQsPSoA4cBM0YFK1PTHCAgNT/5tQOwiMp8I1gf3+o53voGtDbJJPMUv1aP+d4bdeV93H/1XM4Z6Y/XIDfTHw11lO9fy0sL/si76bJpDKZzMfVyZnvbIlCTaCwRP9D8ntrcrmYTE80a0P5tE9xhZT20mopSzeGAreqxONqsIpGaLQyrFbfa+x3F5Tb3zFKL+tCmt8wP19O3c2AwQC8ZQgAAD/VJREFUoIQKWG4CM5abqvXfrN5o/Z7a3htWBSWpnbfNoXKW5WvmKB+l+W9g5TDRIUktHSbW7WorOO1N1eoB0bLBLX+3bm/zCVrRdrpGavHhWB/T/CCTWrTxNJEJls9LxZQSp/lY87fUPN1zunY6PwPG9LVg9cRv8ecOj2/7ntTRG6crZ67XMp7rGh3er+3d0NbH2nWfSzboQmpHvJamcMbPqfU5zLq0p5kDADGPKhA4AEKoAoEDIIQqEDgAQqgCgQMghCoQOABCqAOWtkvaBP0XIdQBhqqqpP7zS7IydlKYtpQXUjsOSBD0H4RQO0Sl872Oaomw6U+9ljmC6PLxw3ADGJTI+Is6s4GVoLcRQm2Fqqqot7xBesZOCjN2Upixjk9uaScjYPulUVWV339slY3+h8ea8wj1JZpIFcXIV9vyaARozGP7cqNVfK0Qa39l4EUmnYY2u70B4MnZ592O+t7bnD7xsznp1+3MHOFq9Xctd63ccQRPb2AKozWFLG5YMJfIvyogmVbh6PQupgUGWmRQxMQZzEg9h5kBpdz6yDt91mZBM6JHtdDc4xiVlvHAbmNm8WibjHutSqvaougFszh7UMs3mvPa9ugF2IB1yk7rpNjm6GXT73PueZyn7rqcGWPCOsj8IOhthFA1VPMia0XBaMny3kjjCUA3gimPBmuLn9u5abUbX1FCeHrSCABq6+q090wZFTos26u0WgyuLRiXLKsIWiUOR7FkvhBi7VuEUFugmraFsAi1iD0Zpoxjo8/9A5OV9h0v5tUq6uTfM2skQDZ79pqPUVplg299wzdnebAvsbTa9ke1+mmTTZBmgeq0BGU6vZZWRVuPq6WEsVye5fUZxKqevm67rqHPH2b9EyFUC2ahtEwonbF6Lw0A0WO4brKxnZ7RbDIrTL5qDJEA2dv52XKK5pu8RdZ5VSV87gO8990K0vfspCjT9FO4Zx2r3n+M+aOUdoRhauMLP6RRmLGT9PdvQlVCuezhhaxas44s8xaQmTtJX7OUV68LabGW1JyNQr79PQ7mZ3B493vcLWkL49Wb+XTHHkpz0nks1dNUJvYqSnP3WbZvfKGFWFVUdTjzn3+PjZs3NzvP9m8mfc1SFv3hAsLbE62qWra4LNy6iDuUUC59eBEbt2rOu62LuEP04G0QQm1Fm3vk6V/YewIggnNuv7JNz2gxmdULuXtyOAAHt73U8hzWLxQVVQ3hsheWsfqlm5kZ74eXm9Wxbp7ETbycpz5bwdLbzUIz/Zjqstp3RfXj1eXLWHjrOcQFe+JmtYLOKziRyx9/n/evVKzO0f6aPQms9oo53YejNK+pHXk7n2xYylOXJRMx1OoCdG54BSdy4b3Psvq7fzBDsRoDW1sOGgHPLOTft6YQ4aX9wQgNWj2id21GCPUMqLzEz+km8zdw3MXcZd541yJWbVx31cUkBwCGfax7qbCDk5lu0slPLuTfl5nmMhtLtvDugvmMj4gjcNp8Hnz9V7LrAJ0/Ux5azJvTW+4QpyoK2WXHAPCadAtXJLhBXS4/vP4IV02LJzDiUh58b5eWN9efmTc/qC1Mx/IUshaKajTvxfoeVyUl4BcSxaMbtfF19lKGBoUTEB5DcPRc/qwopiyH6k188vZ9TAkADHVkf/UyN14cT2BEHLNve5ml24/SCLglXMGbn91LhNqcYkVVFZR3tCThXincdXkMbtSR/dULXDM9kdCzf8f7liFG936XjowQaivMOYqaX0u8+NEG7cYax9z7rExZtbmXuPuKMQQCZG5nYV57C7u1DA/q7Tx0cYxJpDlfcEvK9Tz0wTryDacwZq/jw6fvIPXCZ9lQBRDGhX97Rhsbm34Uo6F55zmgNu0trkucxfynl7A2+xTGpt18+LfLeHz1UdMBwcOZrxhNY29zulBLlgvVlNLUvHuc0aiNSc1pFrT6tHSp5g2yJr90HVOGAtSx4YVLmPT7V/k57RRGwyl2/fQK9182gVs/yzGJdcx8Ft5jSk2qKKb6jQYrq0Bfx4anLyL1D4tYl2PawtKyFaPoUS0IobamtcBkGZb+j/X5AG6Mn/NQS+eKqqKqd3BRshfQyLbv/0ZhiywS5mRjJvNS+dtsbfrmKCue+jO/ah5hy6ZLioKS8wZ//Hq/qXjURO681Gh5X1EUy/bGDbsXccmFT/CL0WARm6LlL/4gS0tx7epGoMWZpYndkuqpOZ9xh4avavWLqqAqc017vAKNez7j/v/mmfZztboGxWjklz8uZkO56TM7+/wHTTl+FdOerc37o0Ltxlf4w8K85geESsdtGcAIobahZd4SU/a7TTy1Odv0p4RJPB1hnfNIRX1gGkmDgRP7+OXfzSlIm09nFrSRO0eYbnLK0/n2Z1PQgSTLzR5YrWz+3zey1wDgT8R4KyGolt2NaTx+hL2a6kznMHlzkSTUQ7Um83ewJwGW/VbNY9xmh5BZtZIkmbas0MnN1oAkWbzDkqQDSUZVUogIML19cMuTFKqmspbjzPWrS/l8t7lXH8Gt5geCYm1617L759cpUK22oLRkJrTOiCgQQm2HFlmVtHy6hS9rwtGPZNaDKVZjxhCenTUGN6B8y6e8pOXCtY5gMpvIiqIQF6B5TWrLWCZJyLIend4FvYsrOhdXS5Z+iXJqTpgO9faf23J3cOuWyjpLpnud3lRep9O3vMWtAxuUVmM/izdY0vL76q2uX0bWuyDr9c0Cvj2cIADqqCnVstprdetdXNFr9cuSzBeVNabTeHkRrlhP8zR31GaR63R6S7b+ljmGBSCEekZM2yvISAWP8F2ayakUmXwVU8ymZsQtjE8AKGbrm580575thdlbisHq3JIpNahO74rOxQW93tVqawmru1Q158ZtbRJKyHq96RwupnNYbvYWDwqrqaf2r9ISAGEKgrA6v2U/Vm17iSarM5hFpteb6nYxCVbWm3pWq8Shmtnb7MFursL0oJEtItWSbCN6VGuEUM+AJbO+rOOlpZsoB4iexF1XmfabmfLgNJL0QH4a76y3Mt+az4B1UMPBSs2j6h3ENbJ5VzTzVobNO6VJUhA+g02H1pR/axFby8yGpj1nZJ3e9L9sXb71lXQ87mtOACi1zEKvmeVowlEB9T3zto5e+ITJll7Ysg2j1jvKso6r/bxN56mrpbDFnrEW2xpJ0lldt4z1LgWCZoRQz4S5R5VlpE9/Yk85QABJc69EMU7g+rNMc6d7V7/IBqn52LadgUmsr+8vNr0MTOLi86XmHtt6Y2BZJurpySTrAY5StLWjZWiSJXt8602RW5jvZ5rn0ERqTvTd4vzmf7Wxtqr+RqG269zwiY8SJTWLq8Xmw9K1XDNGG8we2se7agcuIsm6jHnRgxBpa4RQT4uWmd2yTf3n/9/e+YVYVcRx/PObOesGwb65Txv1oBKsGhSJD1qYCb2kufinNy1YRFF7iX0x8UHFItqsNChUNHwoXIpE80EhWdtAFoNCQfJBcYkgQ1AIvLv3nunhNzNnzu69dxdFyDzfl73LmTNn5jC/850z39+cLwdGbgLQvWgt76x+m6XPAPUrjB4eK9i3ydQ3YtcZRv8BmM2KHftY3qzM02+xf02v/r4+wsGh2Jop7Stc0ZPgfEA2utfwP7q66Zty9CQHR/Rh0/ncegY39TSt49X9W1jRDVBj9Ic9ba5mkNiPB2r2/xpVoE6HkMTun/oXPvhRF5We7GXN5l66gdql0wxcT9/xmn3kOwTTAfZ8e417QOecdRwaPsLutS/SkztcPo9lm/YxfHKApV0Atzj7yVZ+Sm0c7nMwz1TwEITDY54yu19gy87Xeco55r/SR98Sbcfw5qMM3wboYsnAd5z/sJ9lvfoO3rPoDfYcP8+RPg3ge5ePsuljyvdkSnZUFaHTodqPOg1SxzdxDm7sZPjqBhbO72Tes7OBu1w8/SlivFeMGHKZuugTGE+McOHdDWx74hgH1s6ls2cxG/cuZuPeSafUbnH2/ZWs/1rIsoQ53cMY1OU65eDP/LZ+DguzLhb0D3KxfxCAaydOcOK8IHKIVW928v3xAV7q7mLu6u18tXr7lFrvXD5G//Ld3LQZNkoulUZ6P6gYtRlKUqok0oWuSL536pIm6gP8NcrQF+mqaTMTo8LiUe0T/2Bo6zIWb/6Sc1dvcaeWFK3d5feRbxhY+TzrPh/z5VO3taR97V7nJvfB/23X5+BIx41dbPvoDL/fLhpWu/s3N8fUnlLEIL9+xqoFrzEw9As3k3LUa9z58wqnBrfz8vIdnJPQ58LftXR/KjKdER4/k6gW0PQ8ddhuTIzTaKiOovpkByLqil2vj1Mfr+lxp56hWYdqiCbrQEBduOsTuLyBiMV2ZOqsLRTXqNcJrtuppONckUxhjNcXO2Z5D1IX687zHGNM1E6Nl0PyvFUfZiFGdL9tPTiES9RwxdiYolifqFGfGMfluT6gsixKJ6Bb3xqNCVwjJFtIfJBEGco5/wUJL93YDkTEpxCO06hPaNt8/2If2r3fP8aopr4R5Q3V4kzBgom1vUoQId3N6d7OILNIKGNwxqqLuZiY1aNmvBK3XWpeq0+cIE+b4qWWLOqLmoZYeJTqq3DCUn5ltnUftIxLN42Hab1fyDEYnDGxP7lL9F+TgzM+A0ppMKfuE/odjsak2yn+My8qHQVt1BhH7q/hKNzSq9Xe9qgCNUUw7rXhtkghwIsg1uKcw3omjKwXkxT8uywWY10MGh34IaCyKCVKw8SN2Ukj1Gncs6nJvKmx4F3DLc46z8aFNFOIoS36IAJGMLkBa6MkE7KAjEYqBouzGdan9TlXBFOQUkyYyosgeWOKq7iElfKgqfpMJQeQ6z3DArjivlULSm1RBaqHrnMER/JiChZ0TrxRsM0yRCC3Fhw+qHwmji+jcSU4k0dmKbJtdLqnLNJQds6LjKHAgMaERIuCzZWBwJLp75QRY+2t+uAZyxKDGfBBrEkNWhYNct9uF6ewtpiaClgjSG4wSaA6VzycxLNm+KvvyQ7l7bJDeTBsrmK1NapAjfBTR3RQO+PiwC+0SgfOYKQDk1vdip18gygtIyI4bFzE0cDE7982GAm7amzp6w+RqeL3jEKSvJ4sRqevsdUSyoUyLfpgJC64atCaUIFn+nC6QeNKcMbGd81imm18v0EkxxmLSR3OA6vHthf/a5waz96+nvT+VlPflqgCNUGhVYanP0SmKraUIOKUeooTk4HuB5yk6X5JIIUsIFx8X3WlLPUw2ItBn1xGeVR0UScGZhqk7fpgxAdeKpNMCnJR1hMrpWyoIjtJfB6xA2cR53CYsuoioR3luhHR6bvx/W96fys0QxWokxGF+WYDJw24yVtQSlUQGLAVS8TFE3GIkyiPlgO+1fVbHZ9BH9r2L72GfyAlD5DyOb6ciOrL5UOt65/2+hWaoQrU+8ZMBtoMy8h/ddjOsGEVGz50VKJVhQqPAKpArVDhEUAVqBUqPAL4F5DhyuFbMNmLAAAAAElFTkSuQmCC;" vertex="1" parent="1">
          <mxGeometry x="125.63" y="495" width="22.43" height="30" as="geometry" />
        </mxCell>
        <mxCell id="gORR2JOLQoyEgwpr3WBH-52" value="System Api" style="text;html=1;align=center;verticalAlign=middle;resizable=0;points=[];autosize=1;strokeColor=none;fillColor=none;rotation=-90;" vertex="1" parent="1">
          <mxGeometry x="-100" y="792.19" width="80" height="30" as="geometry" />
        </mxCell>
        <mxCell id="gORR2JOLQoyEgwpr3WBH-59" value="" style="edgeStyle=orthogonalEdgeStyle;rounded=0;orthogonalLoop=1;jettySize=auto;html=1;" edge="1" parent="1">
          <mxGeometry relative="1" as="geometry">
            <mxPoint x="480" y="620" as="sourcePoint" />
            <mxPoint x="360" y="640" as="targetPoint" />
            <Array as="points">
              <mxPoint x="480" y="618" />
              <mxPoint x="480" y="640" />
            </Array>
          </mxGeometry>
        </mxCell>
        <mxCell id="gORR2JOLQoyEgwpr3WBH-99" style="edgeStyle=orthogonalEdgeStyle;rounded=0;orthogonalLoop=1;jettySize=auto;html=1;exitX=0;exitY=0.5;exitDx=0;exitDy=0;exitPerimeter=0;" edge="1" parent="1" source="gORR2JOLQoyEgwpr3WBH-61">
          <mxGeometry relative="1" as="geometry">
            <mxPoint x="-50" y="1064.4285714285716" as="targetPoint" />
          </mxGeometry>
        </mxCell>
        <mxCell id="gORR2JOLQoyEgwpr3WBH-61" value="" style="line;strokeWidth=2;html=1;" vertex="1" parent="1">
          <mxGeometry y="1060" width="730" height="10" as="geometry" />
        </mxCell>
        <mxCell id="gORR2JOLQoyEgwpr3WBH-62" value="Process APi" style="text;html=1;align=center;verticalAlign=middle;resizable=0;points=[];autosize=1;strokeColor=none;fillColor=none;" vertex="1" parent="1">
          <mxGeometry x="295" y="1068" width="90" height="30" as="geometry" />
        </mxCell>
        <mxCell id="gORR2JOLQoyEgwpr3WBH-72" value="" style="edgeStyle=orthogonalEdgeStyle;rounded=0;orthogonalLoop=1;jettySize=auto;html=1;" edge="1" parent="1">
          <mxGeometry relative="1" as="geometry">
            <mxPoint x="220" y="697.5" as="sourcePoint" />
            <mxPoint x="80" y="719.5" as="targetPoint" />
            <Array as="points">
              <mxPoint x="220" y="719.5" />
              <mxPoint x="80" y="719.5" />
            </Array>
          </mxGeometry>
        </mxCell>
        <mxCell id="gORR2JOLQoyEgwpr3WBH-73" value="" style="edgeStyle=orthogonalEdgeStyle;rounded=0;orthogonalLoop=1;jettySize=auto;html=1;" edge="1" parent="1">
          <mxGeometry relative="1" as="geometry">
            <mxPoint x="220" y="778" as="sourcePoint" />
            <mxPoint x="80" y="800" as="targetPoint" />
            <Array as="points">
              <mxPoint x="220" y="800" />
            </Array>
          </mxGeometry>
        </mxCell>
        <mxCell id="gORR2JOLQoyEgwpr3WBH-74" value="" style="edgeStyle=orthogonalEdgeStyle;rounded=0;orthogonalLoop=1;jettySize=auto;html=1;" edge="1" parent="1">
          <mxGeometry relative="1" as="geometry">
            <mxPoint x="220" y="858" as="sourcePoint" />
            <mxPoint x="80" y="880" as="targetPoint" />
            <Array as="points">
              <mxPoint x="220" y="880" />
              <mxPoint x="80" y="880" />
            </Array>
          </mxGeometry>
        </mxCell>
        <mxCell id="gORR2JOLQoyEgwpr3WBH-75" value="" style="edgeStyle=orthogonalEdgeStyle;rounded=0;orthogonalLoop=1;jettySize=auto;html=1;" edge="1" parent="1">
          <mxGeometry relative="1" as="geometry">
            <mxPoint x="220" y="938" as="sourcePoint" />
            <mxPoint x="80" y="960" as="targetPoint" />
            <Array as="points">
              <mxPoint x="220" y="960" />
              <mxPoint x="80" y="960" />
            </Array>
          </mxGeometry>
        </mxCell>
        <mxCell id="gORR2JOLQoyEgwpr3WBH-76" value="" style="edgeStyle=orthogonalEdgeStyle;rounded=0;orthogonalLoop=1;jettySize=auto;html=1;" edge="1" parent="1">
          <mxGeometry relative="1" as="geometry">
            <mxPoint x="500" y="698" as="sourcePoint" />
            <mxPoint x="360" y="720" as="targetPoint" />
            <Array as="points">
              <mxPoint x="500" y="720" />
              <mxPoint x="360" y="720" />
            </Array>
          </mxGeometry>
        </mxCell>
        <mxCell id="gORR2JOLQoyEgwpr3WBH-77" value="" style="edgeStyle=orthogonalEdgeStyle;rounded=0;orthogonalLoop=1;jettySize=auto;html=1;" edge="1" parent="1">
          <mxGeometry relative="1" as="geometry">
            <mxPoint x="500" y="780" as="sourcePoint" />
            <mxPoint x="360" y="802" as="targetPoint" />
            <Array as="points">
              <mxPoint x="500" y="802" />
              <mxPoint x="360" y="802" />
            </Array>
          </mxGeometry>
        </mxCell>
        <mxCell id="gORR2JOLQoyEgwpr3WBH-78" value="" style="edgeStyle=orthogonalEdgeStyle;rounded=0;orthogonalLoop=1;jettySize=auto;html=1;" edge="1" parent="1">
          <mxGeometry relative="1" as="geometry">
            <mxPoint x="500" y="858" as="sourcePoint" />
            <mxPoint x="360" y="880" as="targetPoint" />
            <Array as="points">
              <mxPoint x="500" y="880" />
              <mxPoint x="360" y="880" />
            </Array>
          </mxGeometry>
        </mxCell>
        <mxCell id="gORR2JOLQoyEgwpr3WBH-79" value="" style="endArrow=classic;html=1;rounded=0;" edge="1" parent="1">
          <mxGeometry relative="1" as="geometry">
            <mxPoint x="360" y="842.76" as="sourcePoint" />
            <mxPoint x="460" y="842.76" as="targetPoint" />
          </mxGeometry>
        </mxCell>
        <mxCell id="gORR2JOLQoyEgwpr3WBH-80" value="Post Req" style="edgeLabel;resizable=0;html=1;;align=center;verticalAlign=middle;" connectable="0" vertex="1" parent="gORR2JOLQoyEgwpr3WBH-79">
          <mxGeometry relative="1" as="geometry" />
        </mxCell>
        <mxCell id="gORR2JOLQoyEgwpr3WBH-84" value="" style="line;strokeWidth=2;html=1;rotation=90;" vertex="1" parent="1">
          <mxGeometry x="-300" y="798" width="510" height="10" as="geometry" />
        </mxCell>
        <mxCell id="gORR2JOLQoyEgwpr3WBH-86" value="" style="verticalLabelPosition=bottom;shadow=0;dashed=0;align=center;html=1;verticalAlign=top;strokeWidth=1;shape=mxgraph.mockup.markup.line;strokeColor=#999999;rotation=90;" vertex="1" parent="1">
          <mxGeometry x="382.5" y="792.5" width="515" height="20" as="geometry" />
        </mxCell>
        <mxCell id="gORR2JOLQoyEgwpr3WBH-87" value="Response" style="text;html=1;align=center;verticalAlign=middle;resizable=0;points=[];autosize=1;strokeColor=none;fillColor=none;" vertex="1" parent="1">
          <mxGeometry x="130" y="618" width="80" height="30" as="geometry" />
        </mxCell>
        <mxCell id="gORR2JOLQoyEgwpr3WBH-88" value="Response" style="text;html=1;align=center;verticalAlign=middle;resizable=0;points=[];autosize=1;strokeColor=none;fillColor=none;" vertex="1" parent="1">
          <mxGeometry x="140" y="697.5" width="80" height="30" as="geometry" />
        </mxCell>
        <mxCell id="gORR2JOLQoyEgwpr3WBH-89" value="Response" style="text;html=1;align=center;verticalAlign=middle;resizable=0;points=[];autosize=1;strokeColor=none;fillColor=none;" vertex="1" parent="1">
          <mxGeometry x="140" y="778" width="80" height="30" as="geometry" />
        </mxCell>
        <mxCell id="gORR2JOLQoyEgwpr3WBH-91" value="Response" style="text;html=1;align=center;verticalAlign=middle;resizable=0;points=[];autosize=1;strokeColor=none;fillColor=none;" vertex="1" parent="1">
          <mxGeometry x="140" y="858" width="80" height="30" as="geometry" />
        </mxCell>
        <mxCell id="gORR2JOLQoyEgwpr3WBH-92" value="Response" style="text;html=1;align=center;verticalAlign=middle;resizable=0;points=[];autosize=1;strokeColor=none;fillColor=none;" vertex="1" parent="1">
          <mxGeometry x="140" y="938" width="80" height="30" as="geometry" />
        </mxCell>
        <mxCell id="gORR2JOLQoyEgwpr3WBH-93" value="Response" style="text;html=1;align=center;verticalAlign=middle;resizable=0;points=[];autosize=1;strokeColor=none;fillColor=none;" vertex="1" parent="1">
          <mxGeometry x="400" y="618" width="80" height="30" as="geometry" />
        </mxCell>
        <mxCell id="gORR2JOLQoyEgwpr3WBH-94" value="Response" style="text;html=1;align=center;verticalAlign=middle;resizable=0;points=[];autosize=1;strokeColor=none;fillColor=none;" vertex="1" parent="1">
          <mxGeometry x="410" y="697.5" width="80" height="30" as="geometry" />
        </mxCell>
        <mxCell id="gORR2JOLQoyEgwpr3WBH-95" value="Response" style="text;html=1;align=center;verticalAlign=middle;resizable=0;points=[];autosize=1;strokeColor=none;fillColor=none;" vertex="1" parent="1">
          <mxGeometry x="420" y="778" width="80" height="30" as="geometry" />
        </mxCell>
        <mxCell id="gORR2JOLQoyEgwpr3WBH-96" value="Response" style="text;html=1;align=center;verticalAlign=middle;resizable=0;points=[];autosize=1;strokeColor=none;fillColor=none;" vertex="1" parent="1">
          <mxGeometry x="420" y="858" width="80" height="30" as="geometry" />
        </mxCell>
        <mxCell id="gORR2JOLQoyEgwpr3WBH-98" value="" style="line;strokeWidth=2;direction=south;html=1;rotation=90;" vertex="1" parent="1">
          <mxGeometry x="322.5" y="142.5" width="10" height="814.38" as="geometry" />
        </mxCell>
      </root>
    </mxGraphModel>
  </diagram>
</mxfile>
